<svg xmlns="http://www.w3.org/2000/svg" xmlns:xlink="http://www.w3.org/1999/xlink" version="1.1" x="0px" y="0px" viewBox="0 0 100 125" enable-background="new 0 0 100 100" xml:space="preserve"><path fill-rule="evenodd" clip-rule="evenodd" d="M50.674,7.066c24.848,0,45,18.495,45,41.302c0,9.518-3.515,18.281-9.411,25.264  l6.932,17.913c1.173,2.489-0.044,2.821-2.29,1.811l-18.58-8.78c-6.426,3.244-13.802,5.094-21.651,5.094  c-24.848,0-45-18.495-45-41.302C5.674,25.562,25.826,7.066,50.674,7.066L50.674,7.066z M50.759,38.573  c-2.122-4.405-5.873-7.37-11.506-7.157c-7.01,0.253-10.151,5.519-10.005,10.808c0.295,10.539,10.05,19.937,18.377,25.251  c2.901,1.846,3.227,1.846,6.118-0.009c8.326-5.306,18.069-14.728,18.358-25.242c0.144-5.29-2.996-10.556-10.006-10.808  C56.462,31.203,52.879,34.168,50.759,38.573z"/></svg>