<svg xmlns="http://www.w3.org/2000/svg" xmlns:xlink="http://www.w3.org/1999/xlink" version="1.1" x="0px" y="0px" viewBox="0 0 100 125" enable-background="new 0 0 100 100" xml:space="preserve"><path fill-rule="evenodd" clip-rule="evenodd" d="M-24.248,63.604c-2,0-3.973,0-5.976,0c-0.069-0.561-0.136-1.111-0.203-1.662  c-0.156-1.279-0.308-2.559-0.475-3.835c-0.009-0.072-0.127-0.163-0.211-0.188c-0.997-0.283-1.679-0.9-1.937-1.91  c-0.257-1.004-0.001-1.9,0.77-2.603c0.751-0.683,1.64-0.851,2.614-0.556c0.048,0.016,0.095,0.033,0.16,0.057  c0.535-0.875,1.317-1.366,2.338-1.357c1.021,0.01,1.799,0.506,2.323,1.408c0.897-0.381,1.764-0.331,2.58,0.199  c0.588,0.381,0.953,0.93,1.112,1.613c0.292,1.244-0.407,3.008-2.464,3.215C-23.825,59.846-24.035,61.711-24.248,63.604z   M-25.813,62.457c0.185,0,0.338-0.014,0.488,0.002c0.232,0.026,0.305-0.061,0.319-0.294c0.057-0.915,0.139-1.829,0.206-2.745  c0.03-0.406,0.048-0.813,0.072-1.227c-0.269,0-0.506,0-0.767,0C-25.6,59.605-25.705,61.006-25.813,62.457z M-28.497,62.443  c-0.108-1.424-0.216-2.831-0.324-4.245c-0.266,0-0.51,0-0.775,0c0.107,1.427,0.212,2.833,0.317,4.245  C-29.004,62.443-28.767,62.443-28.497,62.443z M-27.479,58.197c0,1.423,0,2.826,0,4.242c0.255,0,0.49,0,0.742,0  c0-1.42,0-2.823,0-4.242C-26.987,58.197-27.224,58.197-27.479,58.197z"/><path fill-rule="evenodd" clip-rule="evenodd" d="M42.497,48.049c0,4.278,0,8.467,0,12.655c0,0.403,0.057,0.818-0.023,1.198  c-0.057,0.279-0.295,0.518-0.455,0.768c-0.21-0.262-0.591-0.522-0.602-0.796c-0.046-2.193-0.029-4.398-0.034-6.598  c0-2.392,0-4.778,0-7.256c-0.978,0-1.796,0-2.796,0c0,2.238,0,4.427,0,6.614c0,2.296,0.034,4.597-0.028,6.898  c-0.012,0.421-0.393,0.841-0.597,1.262c-0.193-0.068-0.381-0.125-0.568-0.193c0-4.83,0-9.66,0-14.576c-1,0-1.83,0-2.785,0  c0,5.723,0,11.439,0,17.435c1.12,0,2.245,0.04,3.364-0.017c0.858-0.034,1.148,0.318,1.148,1.142  c-0.023,6.553-0.028,13.104-0.023,19.656c0,0.904-0.295,1.409-1.307,1.376c-1.341-0.052-2.682-0.012-4.148-0.012  c-0.443-3.683-0.87-7.24-1.301-10.791c-0.835-6.894-1.705-13.786-2.495-20.691c-0.13-1.107-0.58-1.551-1.648-1.829  c-6.456-1.717-11.058-7.172-11.467-13.479c-0.449-6.973,3.165-12.968,9.467-15.537c3.307-1.352,6.711-1.449,10.144-0.477  c0.472,0.136,0.949,0.267,1.403,0.397c6.558-10.604,20.963-10.394,27.289,0.307c3.006-1.262,6.148-1.693,9.364-1.057  c8.2,1.625,13.479,9.206,12.116,17.435c-1.058,6.416-5.035,10.309-11.014,12.377c-0.136,0.051-0.289,0.073-0.438,0.103  c-0.915,0.17-2.29,0.045-2.653,0.585c-0.608,0.921-0.671,2.256-0.808,3.433c-1.017,9.239-2.011,18.485-2.966,27.726  c-0.113,1.091-0.387,1.625-1.608,1.522c-1.284-0.113-2.586-0.028-4.052-0.028c-0.028-0.619-0.073-1.143-0.079-1.676  c0-5.694,0.017-11.4-0.012-17.094c0-0.853,0.268-1.228,1.057-1.671c3.251-1.818,4.547-4.91,4.904-8.444  c0.494-4.854-2.568-9.694-6.757-10.786c-3.591-0.932-7.205,0.887-9.126,4.626c-2.637,5.132-0.989,11.99,3.614,14.604  c0.313,0.182,0.648,0.671,0.653,1.018c0.04,6.393,0.028,12.791,0.028,19.304c-4.165,0-8.234,0-12.49,0c0-2.5,0-4.979,0-7.467  c-0.011-4.348,0.022-8.7-0.045-13.048c-0.017-1.176,0.33-1.637,1.534-1.528c0.978,0.091,1.966,0.017,3.041,0.017  c0-5.921,0-11.638,0-17.463c-0.91,0-1.733,0-2.745,0c0,4.848,0,9.667,0,14.474c-1.228,0.131-1.25,0.131-1.256-0.954  c-0.017-3.904-0.005-7.808-0.005-11.706c0-0.546,0-1.092,0-1.756C44.372,48.049,43.553,48.049,42.497,48.049z"/><path fill-rule="evenodd" clip-rule="evenodd" d="M-65.231,56.957c0.462-0.613,0.995-1.037,1.593-1.357  c0.586-0.313,1.21-0.559,1.825-0.838c-0.125-0.27-0.157-0.568,0.09-0.83c0.19-0.202,0.439-0.244,0.689-0.158  c0.343,0.121,0.479,0.395,0.447,0.773c1.48-0.158,2.918-0.135,4.271,0.613c0.344-0.518,0.689-1.028,1.024-1.545  c0.24-0.37,0.539-0.648,0.996-0.701c0.495-0.059,0.908,0.117,1.186,0.521c0.272,0.396,0.266,0.834,0.042,1.299  c-0.363-0.229-0.805-0.289-1.109-0.673c-0.592,0.886-1.193,1.786-1.818,2.722c0.248,0,0.457,0,0.693,0c0,0.424,0,0.823,0,1.271  c0.484-0.213,0.929-0.408,1.411-0.619c0.154,0.352,0.303,0.692,0.461,1.053c-0.077,0.041-0.14,0.08-0.207,0.109  c-0.472,0.209-0.938,0.427-1.418,0.615c-0.197,0.077-0.244,0.186-0.241,0.382c0.011,0.748,0.006,1.495,0.004,2.243  c-0.002,0.813-0.537,1.373-1.35,1.377c-2.037,0.008-4.074,0.008-6.111,0c-0.832-0.004-1.363-0.555-1.368-1.385  c-0.004-0.713-0.012-1.427,0.005-2.14c0.006-0.229-0.075-0.333-0.278-0.415c-0.524-0.214-1.037-0.457-1.56-0.674  c-0.167-0.07-0.201-0.146-0.123-0.309c0.129-0.27,0.241-0.547,0.375-0.856c0.268,0.118,0.522,0.233,0.778,0.344  c0.25,0.108,0.5,0.214,0.792,0.337c0-0.457,0-0.872,0-1.323c0.123,0,0.214,0,0.305,0c2.055,0,4.109-0.003,6.163,0.005  c0.186,0,0.3-0.055,0.399-0.207c0.296-0.457,0.604-0.906,0.952-1.425C-59.314,55.77-62.238,56.356-65.231,56.957z M-63.257,57.707  c0,1.441,0,2.863,0,4.297c0.394,0,0.767,0,1.167,0c0-1.438,0-2.86,0-4.297C-62.49,57.707-62.871,57.707-63.257,57.707z"/><path fill-rule="evenodd" clip-rule="evenodd" d="M-69.446,53.843c-0.475,0.345-0.934,0.659-1.371,1.001  c-0.437,0.342-0.851,0.714-1.321,1.11c0.285,0.065,0.507,0.095,0.714,0.167c0.388,0.135,0.786,0.258,1.143,0.453  c0.236,0.129,0.435,0.354,0.602,0.573c0.169,0.222,0.126,0.481,0.002,0.731c-0.592,1.191-1.181,2.384-1.764,3.579  c-0.092,0.189-0.098,0.443-0.231,0.585c-0.199,0.212-0.455,0.432-0.725,0.504c-0.658,0.18-1.334,0.329-2.012,0.396  c-1.442,0.146-2.886,0.113-4.302-0.23c-0.38-0.092-0.736-0.311-1.082-0.508c-0.125-0.072-0.208-0.246-0.273-0.389  c-0.247-0.553-0.468-1.117-0.72-1.668c-0.363-0.796-0.752-1.58-1.115-2.377c-0.149-0.328-0.021-0.705,0.316-0.98  c0.477-0.392,1.046-0.586,1.637-0.713c1.597-0.342,3.215-0.424,4.842-0.371c0.523,0.018,1.045,0.058,1.568,0.069  c0.089,0.002,0.207-0.065,0.268-0.138c0.771-0.922,1.649-1.721,2.659-2.377c0.165-0.107,0.281-0.105,0.429,0.018  C-69.951,53.471-69.706,53.645-69.446,53.843z M-70.803,57.559c0.003-0.039,0.007-0.078,0.011-0.117  c-0.669-0.131-1.341-0.25-2.006-0.401c-0.231-0.053-0.366,0.007-0.497,0.187c-0.093,0.127-0.208,0.295-0.339,0.322  c-0.313,0.066-0.642,0.061-1.016,0.086c0.162-0.267,0.296-0.488,0.448-0.738c-2.233-0.135-4.401-0.031-6.522,0.619  C-77.416,58.37-74.109,58.363-70.803,57.559z M-77.407,59.634c0.12,0,0.241,0.003,0.361-0.001c0.211-0.007,0.346-0.111,0.352-0.328  c0.005-0.209-0.104-0.344-0.323-0.355c-1.002-0.057-2-0.143-2.965-0.447c-0.194-0.063-0.366,0.014-0.425,0.227  c-0.056,0.202,0.032,0.35,0.225,0.432c0.047,0.021,0.097,0.035,0.146,0.051C-79.181,59.488-78.3,59.6-77.407,59.634z"/><path fill-rule="evenodd" clip-rule="evenodd" d="M-42.632,59.207c1.11,1.086,2.2,2.152,3.285,3.213  c-0.389,0.4-0.766,0.788-1.163,1.197c-1.104-1.082-2.198-2.154-3.286-3.219c-1.126,1.105-2.233,2.192-3.329,3.268  c-0.375-0.37-0.758-0.748-1.161-1.145c1.087-1.1,2.178-2.203,3.329-3.367c-0.208-0.178-0.392-0.348-0.59-0.496  c-0.063-0.047-0.175-0.066-0.251-0.047c-1.065,0.282-1.995-0.011-2.809-0.693c-0.735-0.616-1.181-1.412-1.214-2.386  c-0.054-1.565,1.198-2.638,2.745-2.38c1.52,0.253,2.729,1.541,2.842,3.076c0.024,0.332-0.09,0.674-0.135,1.012  c-0.01,0.077-0.026,0.181,0.013,0.231c0.151,0.196,0.324,0.375,0.499,0.573c0.338-0.351,0.627-0.65,0.942-0.978  c-0.314-0.289-0.635-0.585-0.95-0.874c1.266-1.258,2.493-2.477,3.716-3.691c0.166,0.154,0.356,0.334,0.577,0.541  c-1.048,1.037-2.077,2.057-3.126,3.096c0.11,0.086,0.191,0.15,0.281,0.219c1.003-1.015,2.021-2.045,3.055-3.091  c0.211,0.252,0.385,0.459,0.568,0.678c-0.973,0.967-2.001,1.989-3.044,3.026c0.083,0.088,0.151,0.16,0.224,0.238  c1.039-1.042,2.063-2.068,3.078-3.088c0.214,0.209,0.409,0.398,0.618,0.602c-1.024,1.021-2.052,2.045-3.097,3.086  c0.089,0.085,0.168,0.16,0.263,0.25c1.02-1.037,2.036-2.07,3.086-3.138c0.201,0.24,0.37,0.44,0.522,0.623  c-1.17,1.198-2.377,2.435-3.596,3.683c-0.337-0.322-0.652-0.623-0.939-0.896C-41.992,58.619-42.299,58.901-42.632,59.207z"/><path fill-rule="evenodd" clip-rule="evenodd" d="M-24.228,27.838c-0.24,0.372-0.475,0.734-0.734,1.135c0.912,0,1.783,0,2.683,0  c-0.025,0.06-0.029,0.094-0.048,0.115c-0.453,0.482-0.91,0.96-1.358,1.446c-0.138,0.149-0.285,0.209-0.493,0.209  c-2.337-0.008-4.675-0.003-7.013-0.01c-0.123,0-0.28-0.042-0.361-0.125c-0.506-0.513-0.996-1.043-1.531-1.611  c0.905,0,1.764,0,2.698,0c-1.236-1.707-1.903-3.547-1.998-5.619c0.098-0.005,0.188-0.013,0.279-0.013  c2.235,0,4.469,0.003,6.704-0.002c0.738-0.002,1.476-0.017,2.213-0.043c0.969-0.034,1.94,0.548,2.326,1.415  c0.405,0.909,0.216,1.959-0.482,2.672c-0.693,0.709-1.74,0.915-2.662,0.523C-24.074,27.9-24.145,27.872-24.228,27.838z   M-31.162,24.465c0.043,0.216,0.097,0.52,0.166,0.82c0.244,1.065,0.672,2.053,1.261,2.971c0.192,0.299,0.515,0.385,0.804,0.218  c0.271-0.157,0.375-0.527,0.197-0.806c-0.671-1.05-1.076-2.198-1.288-3.421c-0.054-0.314-0.332-0.501-0.643-0.465  C-30.956,23.817-31.162,24.063-31.162,24.465z M-23.685,26.797c0.49,0.299,1.047,0.251,1.481-0.135  c0.4-0.355,0.521-0.992,0.283-1.487c-0.23-0.478-0.712-0.758-1.146-0.686C-23.272,25.258-23.476,26.016-23.685,26.797z"/><path fill-rule="evenodd" clip-rule="evenodd" d="M-64.14,72.598c2.797,0,5.56,0,8.352,0c0,0.27,0,0.524,0,0.742  c0.375,0.094,0.728,0.141,1.049,0.27c1.009,0.4,1.603,1.454,1.443,2.506c-0.169,1.121-0.998,1.938-2.108,2.031  c-0.291,0.025-0.462,0.132-0.599,0.377c-0.218,0.39-0.463,0.764-0.69,1.148c-0.073,0.123-0.155,0.176-0.306,0.176  c-1.435-0.011-2.87-0.014-4.304-0.016c-0.541-0.001-1.082,0.002-1.623,0.016c-0.149,0.003-0.233-0.047-0.307-0.174  c-0.221-0.379-0.44-0.758-0.685-1.121c-0.167-0.246-0.23-0.498-0.228-0.795c0.011-1.607,0.005-3.215,0.005-4.822  C-64.14,72.826-64.14,72.717-64.14,72.598z M-63.38,75.694c0,0.636-0.004,1.271,0.002,1.905c0.004,0.376,0.264,0.652,0.59,0.65  c0.333-0.002,0.581-0.275,0.585-0.653c0.004-0.378,0.001-0.755,0.001-1.133c0-0.884,0.004-1.768-0.001-2.651  c-0.002-0.451-0.333-0.721-0.741-0.621c-0.27,0.065-0.433,0.301-0.435,0.649C-63.383,74.459-63.38,75.076-63.38,75.694z   M-55.785,76.857c0.429,0.042,0.757-0.096,0.991-0.416c0.266-0.363,0.293-0.766,0.079-1.165c-0.194-0.36-0.513-0.546-0.92-0.566  c-0.048-0.003-0.143,0.079-0.143,0.124C-55.787,75.502-55.785,76.17-55.785,76.857z"/><path fill-rule="evenodd" clip-rule="evenodd" d="M-72.083,24.701c1.175-0.505,2.024-0.055,2.538,0.568  c0.495,0.601,0.54,1.562,0.112,2.278c-0.472,0.791-1.259,1.06-2.366,0.85c-0.396,0.47-0.784,0.899-1.13,1.36  c-0.092,0.123-0.078,0.339-0.076,0.513c0.001,0.187-0.052,0.254-0.249,0.253c-1.521-0.007-3.042-0.004-4.563-0.005  c-0.067,0-0.133-0.013-0.253-0.025c0.212-0.593-0.155-0.937-0.522-1.282c-0.049-0.046-0.096-0.103-0.124-0.164  c-0.072-0.157-0.181-0.186-0.35-0.173c-0.523,0.038-0.953-0.178-1.234-0.606c-0.267-0.407-0.491-0.844-0.701-1.284  c-0.259-0.541-0.469-1.106-0.733-1.645c-0.122-0.249-0.322-0.46-0.505-0.714c0.31-0.077,0.61-0.162,0.916-0.22  c0.077-0.015,0.178,0.042,0.256,0.088c0.598,0.351,1.192,0.706,1.798,1.066c0.137-0.27,0.267-0.519,0.392-0.771  c0.075-0.152,0.174-0.223,0.361-0.223c2.02,0.007,4.039,0.002,6.058,0.009C-72.344,24.575-72.23,24.649-72.083,24.701z   M-71.14,27.203c0.31,0.001,0.567-0.177,0.67-0.466c0.102-0.284,0.019-0.604-0.206-0.793c-0.214-0.181-0.557-0.216-0.795-0.087  c-0.115,0.063-0.173,0.132-0.143,0.284c0.043,0.217,0.052,0.442,0.061,0.664C-71.54,27.113-71.456,27.2-71.14,27.203z"/><path fill-rule="evenodd" clip-rule="evenodd" d="M-44.411,43.515c-0.276-0.096-0.54-0.172-0.792-0.277  c-1.579-0.656-2.426-1.886-2.701-3.531c-0.168-1.004-0.066-2.003,0.191-2.987c0.033-0.126,0.077-0.19,0.22-0.189  c2.671,0.005,5.343,0.006,8.014,0.008c0.008,0,0.016,0.004,0.085,0.026c0.077,0.438,0.177,0.905,0.235,1.376  c0.108,0.87,0.061,1.737-0.218,2.571c-0.372,1.111-1.065,1.974-2.11,2.525c-0.309,0.162-0.651,0.258-0.97,0.402  c-0.072,0.033-0.157,0.139-0.158,0.212c-0.008,0.704-0.006,1.409,0.013,2.113c0.002,0.063,0.135,0.157,0.221,0.177  c0.718,0.169,1.438,0.33,2.16,0.48c0.167,0.034,0.231,0.097,0.225,0.27c-0.012,0.333-0.003,0.667-0.003,1.019  c-2.298,0-4.57,0-6.877,0c0-0.381-0.008-0.756,0.009-1.131c0.002-0.054,0.118-0.13,0.193-0.148c0.667-0.164,1.334-0.323,2.005-0.468  c0.19-0.041,0.268-0.106,0.264-0.317C-44.419,44.934-44.411,44.221-44.411,43.515z M-46.716,37.698  c-0.112,0.625-0.113,1.219-0.04,1.82c0.027,0.225,0.121,0.27,0.329,0.269c1.923-0.008,3.846-0.004,5.769-0.004  c0.084,0,0.168,0,0.257,0c0.174-0.614,0.125-1.21,0.077-1.809c-0.018-0.223-0.094-0.281-0.313-0.28  c-1.94,0.009-3.881,0.005-5.821,0.005C-46.536,37.698-46.612,37.698-46.716,37.698z"/><path fill-rule="evenodd" clip-rule="evenodd" d="M-57.822,41.9c0,0.154,0,0.297,0,0.522c1.451-1.164,2.851-2.286,4.275-3.428  c0.259,0.318,0.516,0.634,0.791,0.973c-0.383,0.309-0.749,0.603-1.115,0.896c-0.932,0.746-1.866,1.489-2.792,2.243  c-0.063,0.052-0.091,0.177-0.094,0.269c-0.01,0.393-0.004,0.787-0.004,1.211c-0.357,0-0.688,0-1.053,0c0,0.612-0.002,1.193,0,1.774  c0.002,0.304-0.074,0.575-0.286,0.803c-0.24,0.257-0.521,0.407-0.883,0.406c-1.831-0.004-3.661,0.001-5.491-0.003  c-0.694-0.002-1.179-0.521-1.177-1.22c0.004-1.383-0.002-2.767-0.004-4.149c0-0.092,0-0.185,0-0.295  C-63.035,41.9-60.438,41.9-57.822,41.9z M-63.852,46.494c0-1.276,0-2.531,0-3.792c-0.357,0-0.688,0-1.027,0c0,1.271,0,2.525,0,3.792  C-64.533,46.494-64.209,46.494-63.852,46.494z"/><path fill-rule="evenodd" clip-rule="evenodd" d="M-72.865,42.543c0.976-1,1.952-2,2.939-3.013c0.343,0.357,0.65,0.677,0.979,1.02  c-0.419,0.417-0.855,0.851-1.292,1.285c-0.621,0.618-1.244,1.234-1.86,1.856c-0.074,0.075-0.127,0.183-0.16,0.285  c-0.124,0.383-0.235,0.77-0.36,1.184c-0.27-0.069-0.53-0.136-0.815-0.21c-0.06,0.193-0.129,0.377-0.172,0.566  c-0.105,0.463-0.4,0.767-0.831,0.906c-0.503,0.164-1.018,0.325-1.54,0.395c-1.31,0.176-2.622,0.16-3.918-0.143  c-0.242-0.056-0.483-0.127-0.712-0.22c-0.45-0.182-0.76-0.472-0.889-0.982c-0.197-0.781-0.461-1.545-0.705-2.314  c-0.141-0.442,0.022-0.784,0.542-1.124c0.496-0.324,1.062-0.43,1.628-0.532c1.803-0.323,3.604-0.315,5.396,0.075  C-73.788,41.763-73.49,41.93-72.865,42.543z M-81.375,42.91c0.137,0.063,0.244,0.121,0.357,0.161  c0.957,0.337,1.948,0.471,2.958,0.494c1.336,0.031,2.662-0.034,3.939-0.485c0.12-0.042,0.231-0.107,0.373-0.174  C-75.033,42.025-79.819,41.914-81.375,42.91z M-79.686,46.203c-0.227-0.78-0.437-1.51-0.653-2.238  c-0.015-0.048-0.067-0.105-0.114-0.121c-0.312-0.103-0.628-0.196-0.976-0.302c0.229,0.767,0.444,1.495,0.665,2.222  c0.015,0.05,0.063,0.112,0.108,0.128C-80.349,45.997-80.039,46.091-79.686,46.203z"/><path fill-rule="evenodd" clip-rule="evenodd" d="M-37.868,77.822c-3,0-5.926,0-8.852,0c-0.035-1.212,0.915-2.33,2.574-3.024  c-0.064-0.214-0.13-0.432-0.195-0.647c-1.361,0.314-2.886,1.492-3.143,3.665c-0.352,0-0.706,0-1.061,0  c0.056-1.92,1.587-4.186,4.427-4.702c-0.242-0.563-0.224-1.075,0.341-1.436c0.346-0.219,0.828-0.162,1.133,0.1  c0.35,0.301,0.418,0.727,0.203,1.303C-39.862,73.629-38.275,75.129-37.868,77.822z"/><path fill-rule="evenodd" clip-rule="evenodd" d="M-25.513,80.15c-0.005-0.06-0.011-0.093-0.011-0.127  c-0.001-2.26-0.016-4.52,0.003-6.779c0.009-1.055,0.387-1.977,1.167-2.717c0.081-0.078,0.141-0.215,0.146-0.328  c0.017-0.41,0.007-0.822,0.007-1.25c-0.079-0.021-0.148-0.041-0.23-0.063c0-0.355,0-0.714,0-1.071  c0.917-0.333,0.832-0.359,1.77-0.007c0,0.353,0,0.71,0,1.079c-0.071,0.016-0.135,0.031-0.198,0.045  c-0.009,0.018-0.023,0.033-0.023,0.049c-0.003,0.43-0.013,0.858,0,1.287c0.002,0.087,0.07,0.189,0.139,0.252  c0.886,0.805,1.17,1.844,1.189,3.025c-0.411,0-0.809,0-1.225,0c0,1.402,0,2.771,0,4.172c0.4,0,0.798,0,1.202,0  c0,0.825,0,1.62,0,2.434C-22.893,80.15-24.193,80.15-25.513,80.15z"/><path fill-rule="evenodd" clip-rule="evenodd" d="M-70.396,67.608c0.433,0.489,0.848,0.957,1.275,1.44  c-1.127,1.001-2.243,1.991-3.397,3.016c-0.095-0.135-0.178-0.254-0.274-0.393c-0.422,0.386-0.8,0.731-1.198,1.096  c0.976,1.336,1.225,2.796,0.714,4.363c-0.362,1.109-1.085,1.945-2.095,2.516c-1.851,1.045-4.373,0.742-5.911-1.197  c-1.335-1.685-1.323-4.055,0.095-5.785c1.445-1.762,4.286-2.361,6.524-0.615c0.388-0.354,0.779-0.71,1.186-1.082  c-0.099-0.12-0.189-0.23-0.296-0.36C-72.652,69.61-71.538,68.621-70.396,67.608z M-77.608,71.74  c-2.152-0.013-3.891,1.696-3.916,3.85c-0.025,2.141,1.699,3.899,3.838,3.918c2.162,0.018,3.915-1.705,3.932-3.863  C-73.737,73.498-75.46,71.754-77.608,71.74z"/><path fill-rule="evenodd" clip-rule="evenodd" d="M-31.299,79.275c0-0.684,0.002-1.345-0.004-2.006c0-0.053-0.049-0.132-0.097-0.153  c-0.918-0.42-1.237-1.226-1.34-2.14c-0.127-1.121,0.169-2.182,0.556-3.219c0.025-0.068,0.145-0.143,0.221-0.145  c0.755-0.011,1.511-0.01,2.266-0.002c0.067,0,0.173,0.055,0.195,0.109c0.463,1.199,0.773,2.424,0.498,3.718  c-0.155,0.728-0.519,1.321-1.22,1.661c-0.057,0.027-0.111,0.127-0.112,0.194c-0.008,0.601,0.002,1.202-0.009,1.804  c-0.003,0.169,0.087,0.201,0.212,0.226c0.377,0.074,0.754,0.149,1.141,0.228c0,0.203,0,0.389,0,0.595c-1.187,0-2.368,0-3.568,0  c0-0.186,0-0.37,0-0.59C-32.159,79.466-31.744,79.374-31.299,79.275z M-29.753,74.223c-0.003-0.598-0.167-1.139-0.344-1.676  c-0.015-0.045-0.098-0.098-0.151-0.098c-0.387-0.008-0.773-0.008-1.16,0c-0.055,0.002-0.145,0.041-0.16,0.084  c-0.189,0.542-0.314,1.098-0.348,1.689C-31.189,74.223-30.488,74.223-29.753,74.223z"/><path fill-rule="evenodd" clip-rule="evenodd" d="M-37.343,78.531c0,0.396,0,0.779,0,1.176c-3.903,0-7.79,0-11.696,0  c0-0.393,0-0.773,0-1.176C-45.143,78.531-41.248,78.531-37.343,78.531z"/><path fill-rule="evenodd" clip-rule="evenodd" d="M-28.832,76.857c0.147-0.271,0.274-0.504,0.404-0.741  c0.006,0,0.029-0.007,0.038,0.001c0.533,0.501,1.101,0.213,1.386-0.29c0.315-0.557,0.343-1.168,0.27-1.776  c-0.057-0.475-0.191-0.939-0.288-1.409c-0.031-0.151-0.113-0.206-0.27-0.201c-0.335,0.011-0.67,0.014-1.005-0.005  c-0.083-0.004-0.197-0.088-0.232-0.164c-0.091-0.199-0.146-0.414-0.23-0.666c0.401,0,0.758,0,1.116,0  c0.318,0,0.636-0.009,0.953,0.006c0.082,0.005,0.208,0.068,0.233,0.135c0.453,1.211,0.754,2.447,0.463,3.75  c-0.16,0.712-0.526,1.279-1.209,1.605c-0.055,0.025-0.117,0.105-0.117,0.162c-0.008,0.66-0.005,1.32-0.005,2.006  c0.352,0.072,0.691,0.163,1.036,0.209c0.275,0.036,0.396,0.146,0.343,0.427c-0.014,0.073-0.009,0.15-0.014,0.242  c-0.764,0-1.514,0-2.301,0c0-0.455,0-0.899,0-1.344c0-0.473-0.007-0.944,0.004-1.417c0.004-0.168-0.032-0.27-0.205-0.326  C-28.587,77.02-28.698,76.933-28.832,76.857z"/><path fill-rule="evenodd" clip-rule="evenodd" d="M-65.786,41.348c1.01-0.806,2.129-1.126,3.245-1.231  c0.104-0.273,0.155-0.524,0.29-0.716c0.072-0.102,0.292-0.142,0.442-0.137c0.372,0.013,0.557,0.33,0.496,0.817  c1.063,0.108,2.105,0.3,3.034,0.872c0.173,0.107,0.337,0.229,0.487,0.396C-60.43,41.348-63.067,41.348-65.786,41.348z"/><path fill-rule="evenodd" clip-rule="evenodd" d="M-78.058,23.856c0.538-0.47,1.137-0.732,1.83-0.872  c-0.041-0.332-0.033-0.669,0.281-0.868c0.142-0.089,0.335-0.141,0.503-0.137c0.439,0.01,0.649,0.339,0.661,1  c0.665,0.133,1.28,0.394,1.837,0.876C-74.662,23.856-76.34,23.856-78.058,23.856z"/><path fill-rule="evenodd" clip-rule="evenodd" d="M-62.26,71.886c-0.038-0.053-0.069-0.093-0.096-0.136  c-0.14-0.225-0.278-0.45-0.415-0.674c0.376-0.369,0.386-0.461,0.186-0.953c-0.119-0.292-0.242-0.588-0.309-0.894  c-0.08-0.368,0.035-0.706,0.293-1.017c0.27,0.191,0.526,0.375,0.689,0.49c0.067,0.343,0.103,0.598,0.171,0.842  c0.053,0.188,0.155,0.361,0.222,0.547C-61.229,70.888-61.467,71.473-62.26,71.886z"/><path fill-rule="evenodd" clip-rule="evenodd" d="M-60.171,71.911c-0.178-0.291-0.343-0.56-0.52-0.851  c0.417-0.263,0.359-0.604,0.181-0.971c-0.086-0.178-0.166-0.359-0.229-0.546c-0.157-0.471-0.098-0.911,0.223-1.334  c0.264,0.187,0.521,0.369,0.792,0.562c-0.124,0.299-0.028,0.569,0.094,0.84c0.092,0.203,0.178,0.41,0.253,0.619  c0.199,0.559,0.055,1.016-0.448,1.436C-59.923,71.748-60.034,71.814-60.171,71.911z"/><path fill-rule="evenodd" clip-rule="evenodd" d="M-58.172,71.898c-0.175-0.281-0.341-0.55-0.506-0.816  c0.37-0.377,0.378-0.48,0.179-0.975c-0.124-0.307-0.243-0.623-0.304-0.945c-0.064-0.34,0.047-0.66,0.298-0.947  c0.259,0.184,0.515,0.366,0.787,0.559c-0.128,0.307-0.026,0.585,0.103,0.861c0.058,0.123,0.113,0.249,0.163,0.377  C-57.125,70.857-57.329,71.408-58.172,71.898z"/><path fill-rule="evenodd" clip-rule="evenodd" d="M-75.992,37.346c0.139,0.093,0.252,0.169,0.366,0.245  c0.202,0.135,0.394,0.234,0.332,0.572c-0.038,0.204,0.146,0.444,0.213,0.673c0.082,0.277,0.199,0.558,0.203,0.838  c0.007,0.509-0.397,0.763-0.779,1.059c-0.166-0.259-0.321-0.501-0.498-0.777c0.473-0.299,0.279-0.667,0.108-1.036  C-76.29,38.394-76.382,37.873-75.992,37.346z"/><path fill-rule="evenodd" clip-rule="evenodd" d="M-77.482,40.735c-0.183-0.284-0.339-0.527-0.494-0.768  c0.37-0.403,0.374-0.463,0.129-0.973c-0.205-0.426-0.35-0.864-0.159-1.336c0.043-0.108,0.111-0.207,0.177-0.326  c0.232,0.163,0.443,0.308,0.649,0.459c0.036,0.026,0.083,0.093,0.072,0.119c-0.14,0.336,0.084,0.593,0.184,0.876  c0.04,0.113,0.091,0.222,0.132,0.334c0.181,0.502,0.117,0.944-0.321,1.294C-77.231,40.513-77.344,40.616-77.482,40.735z"/><path fill-rule="evenodd" clip-rule="evenodd" d="M-79.405,40.683c-0.163-0.246-0.318-0.481-0.473-0.715  c0.374-0.417,0.377-0.558,0.031-1.216c-0.252-0.478-0.203-1.005,0.135-1.396c0.203,0.139,0.409,0.276,0.609,0.422  c0.042,0.03,0.098,0.104,0.086,0.137c-0.137,0.394,0.095,0.71,0.24,1.023C-78.397,39.756-78.71,40.318-79.405,40.683z"/><path fill-rule="evenodd" clip-rule="evenodd" d="M-60.667,35.566c0.229,0.168,0.456,0.334,0.598,0.439  c0.056,0.287,0.079,0.492,0.14,0.687c0.068,0.22,0.181,0.426,0.256,0.644c0.212,0.623,0.007,1.071-0.694,1.504  c-0.153-0.239-0.307-0.479-0.459-0.716c0.348-0.377,0.36-0.475,0.107-0.987c-0.216-0.439-0.341-0.881-0.105-1.354  c0.023-0.046,0.044-0.093,0.073-0.135C-60.733,35.622-60.705,35.602-60.667,35.566z"/><path fill-rule="evenodd" clip-rule="evenodd" d="M-64.01,38.837c-0.151-0.236-0.303-0.472-0.471-0.733  c0.413-0.253,0.298-0.581,0.14-0.92c-0.207-0.444-0.357-0.896-0.126-1.381c0.022-0.046,0.044-0.093,0.071-0.136  c0.017-0.028,0.042-0.052,0.083-0.1c0.21,0.15,0.419,0.296,0.622,0.449c0.032,0.023,0.06,0.09,0.05,0.125  c-0.08,0.292,0.047,0.537,0.168,0.784c0.041,0.084,0.082,0.169,0.116,0.257C-63.104,37.825-63.153,38.321-64.01,38.837z"/><path fill-rule="evenodd" clip-rule="evenodd" d="M-62.162,38.838c-0.152-0.245-0.295-0.477-0.456-0.735  c0.406-0.249,0.298-0.576,0.14-0.917c-0.178-0.384-0.337-0.776-0.192-1.21c0.045-0.135,0.115-0.261,0.188-0.421  c0.235,0.165,0.445,0.308,0.648,0.458c0.033,0.024,0.064,0.09,0.054,0.125c-0.084,0.282,0.044,0.52,0.148,0.763  c0.051,0.118,0.095,0.239,0.148,0.355C-61.171,37.937-61.54,38.503-62.162,38.838z"/><path fill-rule="evenodd" clip-rule="evenodd" d="M-40.771,72.236c-0.153-0.24-0.299-0.471-0.468-0.737  c0.446-0.242,0.265-0.569,0.116-0.888c-0.211-0.451-0.287-0.898-0.019-1.354c0.021-0.037,0.049-0.068,0.093-0.129  c0.234,0.166,0.461,0.328,0.59,0.422c0.092,0.351,0.155,0.605,0.228,0.857c0.023,0.081,0.076,0.154,0.106,0.233  C-39.847,71.352-40.047,71.865-40.771,72.236z"/><path fill-rule="evenodd" clip-rule="evenodd" d="M-43.74,67.563c0.248,0.176,0.469,0.334,0.708,0.505  c-0.122,0.304,0.002,0.563,0.139,0.825c0.07,0.137,0.125,0.283,0.166,0.432c0.154,0.558-0.072,0.988-0.718,1.352  c-0.155-0.237-0.311-0.476-0.483-0.738c0.39-0.219,0.304-0.502,0.156-0.806c-0.188-0.384-0.318-0.783-0.157-1.214  C-43.886,67.803-43.813,67.697-43.74,67.563z"/><path fill-rule="evenodd" clip-rule="evenodd" d="M-46.25,69.022c0.25,0.181,0.477,0.345,0.621,0.448  c0.062,0.301,0.103,0.518,0.154,0.732c0.018,0.074,0.062,0.142,0.093,0.211c0.352,0.797,0.199,1.266-0.579,1.723  c-0.155-0.239-0.31-0.48-0.463-0.718c0.333-0.335,0.346-0.433,0.107-0.906c-0.184-0.364-0.283-0.737-0.129-1.136  C-46.4,69.26-46.325,69.156-46.25,69.022z"/><path fill-rule="evenodd" clip-rule="evenodd" d="M-75.63,74.611c0.379-0.289,0.75-0.574,1.147-0.877c0,1.195,0,2.371,0,3.596  c-0.359-0.272-0.696-0.527-1.056-0.801c-0.613,0.791-1.43,1.184-2.413,1.245c-0.663,0.042-1.524-0.181-2.021-0.519  c0.254-0.261,0.641-0.391,0.814-0.728c-0.021-0.026-0.041-0.052-0.061-0.077c-0.327,0.143-0.659,0.274-0.979,0.432  c-0.172,0.084-0.313,0.092-0.436-0.06c-0.226-0.278-0.453-0.557-0.657-0.851c-0.05-0.072-0.052-0.22-0.014-0.305  c1.146-2.575,3.893-2.557,5.425-1.26C-75.802,74.474-75.722,74.537-75.63,74.611z M-79.434,75.068  c-0.181,0.003-0.338,0.168-0.336,0.352c0.003,0.182,0.165,0.344,0.344,0.342c0.194-0.002,0.361-0.175,0.352-0.363  C-79.083,75.224-79.256,75.064-79.434,75.068z"/></svg>