<svg xmlns="http://www.w3.org/2000/svg" xmlns:xlink="http://www.w3.org/1999/xlink" version="1.1" x="0px" y="0px" viewBox="0 0 115 175" enable-background="new 0 0 115 140" xml:space="preserve"><g><path d="M109.25,60.167c0-10.493-8.507-19-19-19c-1.55,0-3.049,0.206-4.492,0.556C84.08,29.546,73.638,20.167,61,20.167   s-23.08,9.38-24.758,21.556c-1.443-0.35-2.942-0.556-4.492-0.556c-10.493,0-19,8.507-19,19c0,9.557,7.063,17.443,16.25,18.779   v32.053c0,3.865,14.327,6.999,32,6.999s32-3.133,32-6.999V78.945C102.187,77.61,109.25,69.724,109.25,60.167z"/><path d="M61,120.326c-17.673,0-32-3.133-32-6.999v8.997c0,3.865,14.327,6.999,32,6.999s32-3.133,32-6.999v-8.997   C93,117.192,78.673,120.326,61,120.326z"/></g></svg>