<svg xmlns="http://www.w3.org/2000/svg" xmlns:xlink="http://www.w3.org/1999/xlink" version="1.1" x="0px" y="0px" viewBox="0 0 100 125" enable-background="new 0 0 100 100" xml:space="preserve"><path fill-rule="evenodd" clip-rule="evenodd" d="M-121.925,84.941c0.625,0,1.214,0,1.866,0c0,0.518,0,0.983,0,1.572  c-0.613,0-1.247,0-1.833,0c-0.154,3.721-0.304,7.319-0.455,10.94c-1.27,0-2.392,0-3.548,0c-0.037-0.427-0.07-0.813-0.107-1.245  c-4.617,0-9.194,0-13.832,0c-0.042,0.392-0.082,0.773-0.129,1.221c-1.126,0-2.241,0-3.373,0c-0.02-0.023-0.079-0.063-0.085-0.108  c-0.563-4.073-0.47-8.172-0.437-12.267c0.014-1.722,1.011-2.664,2.738-2.666c5.301-0.007,10.602-0.002,15.903-0.003  C-123.149,82.386-122.499,82.874-121.925,84.941z"/><path fill-rule="evenodd" clip-rule="evenodd" d="M-60.657,68.009c0.667-0.89,1.229-1.67,1.832-2.417  c0.14-0.174,0.41-0.305,0.636-0.336c6.723-0.924,9.885-3.801,11.489-10.476c0.078-0.322,0.128-0.651,0.212-1.088  c-3.482,0-6.869,0-10.326,0c0-2.604,0-5.108,0-7.71c1.536,0,3.08,0,4.738,0c0-0.483,0.005-0.871-0.001-1.258  c-0.01-0.627,0.296-0.961,0.919-0.964c1.587-0.008,3.175-0.012,4.763,0.005c0.526,0.006,0.848,0.288,0.854,0.848  c0.005,0.419,0.001,0.839,0.001,1.363c0.583,0,1.091-0.056,1.582,0.012c0.878,0.121,1.753,0.29,2.613,0.503  c0.185,0.046,0.353,0.344,0.441,0.562c0.253,0.62,0.663,0.779,1.082,0.24c0.617-0.794,1.281-1.643,1.572-2.578  c0.493-1.583,0.721-3.248,1.036-4.883c0.084-0.438,0.08-0.892,0.122-1.404c2.025-0.161,3.998-0.317,5.971-0.474  c0.593-0.047,1.187-0.096,1.78-0.142c0.953-0.074,1.569,0.427,1.544,1.254c-0.023,0.798-0.605,1.231-1.549,1.142  c-2.308-0.218-4.616-0.439-7.003-0.667c-0.328,2.828-0.888,5.533-2.322,7.955c0.774,1.094,0.389,2.293,0.334,3.441  c-0.008,0.173-0.496,0.42-0.787,0.461c-0.524,0.075-1.067,0.021-1.579,0.021c-0.463,1.729-0.463,1.729-1.805,1.876  c0,4.879,0,9.77,0,14.712C-48.567,68.009-54.534,68.009-60.657,68.009z"/><path fill-rule="evenodd" clip-rule="evenodd" d="M-45.802,98.54c-5.428,0-10.808,0-16.225,0c-0.153-0.679,0.233-1.029,0.744-1.139  c0.685-0.146,1.399-0.151,2.102-0.211c1.998-0.169,4.041-0.129,5.984-0.55c3.158-0.684,4.564-2.6,4.63-5.82  c0.043-2.095,0.008-4.19,0.008-6.394c-1.281,0-2.492,0-3.703,0c-1.189,0-2.379,0-3.502,0c-0.679,0.839-0.255,1.502,0.145,2.22  c0.384,0.689,0.719,1.423,0.947,2.176c0.177,0.585,0.458,0.729,1.026,0.707c1.162-0.044,2.328,0.032,3.488-0.028  c0.789-0.042,0.905,0.315,0.844,0.973c-0.244,2.65-2.338,4.98-5.204,5.754c-4.007,1.083-8.15-1.109-9.141-4.836  c-0.014-0.055-0.039-0.107-0.051-0.162c-0.358-1.56-0.238-1.714,1.332-1.714c1.274,0,2.548,0,3.701,0  c0.643-1.31,1.284-2.507,1.807-3.754c0.144-0.343-0.068-0.834-0.126-1.336c-1.205,0-2.362,0.009-3.52-0.003  c-1.217-0.012-1.855-0.621-1.875-1.812c-0.021-1.22-0.021-2.439-0.001-3.659c0.019-1.19,0.666-1.834,1.861-1.837  c4.312-0.01,8.624-0.011,12.936-0.002c1.155,0.002,1.846,0.644,1.848,1.76c0.011,6.44,0.004,12.88,0.001,19.319  C-45.744,98.273-45.77,98.355-45.802,98.54z M-49.701,79.897c-0.35,0.507-0.701,0.795-0.701,1.083c0,0.235,0.448,0.685,0.644,0.657  c0.289-0.04,0.703-0.396,0.741-0.662C-48.981,80.72-49.358,80.405-49.701,79.897z M-50.891,81.022  c-0.498-0.382-0.769-0.749-1.052-0.759c-0.243-0.009-0.714,0.41-0.699,0.609c0.022,0.285,0.363,0.71,0.63,0.764  C-51.759,81.688-51.426,81.336-50.891,81.022z M-56.386,87.189c-0.424,2.274-0.424,2.274,0.229,2.212  C-56.233,88.662-56.309,87.926-56.386,87.189z"/><path fill-rule="evenodd" clip-rule="evenodd" d="M49.589,82.713c-11.297-0.063-20.255-9.098-20.206-20.382  c0.046-11.236,9.171-20.316,20.361-20.261C61.003,42.125,70.07,51.337,70,62.651C69.935,73.741,60.742,82.775,49.589,82.713z   M60.526,62.444c0.019-6.056-4.757-10.878-10.791-10.896c-6.03-0.019-10.941,4.786-10.989,10.754  c-0.051,6.033,4.876,10.996,10.926,11.007C55.68,73.321,60.51,68.485,60.526,62.444z"/><path fill-rule="evenodd" clip-rule="evenodd" d="M-63.507,68.025c-2.941,0-5.824,0-8.8,0c0-1.255,0-2.466,0-3.678  c0-0.908-0.036-1.817,0.008-2.723c0.074-1.541,0.013-2.956-1.151-4.235c-0.568-0.624-0.746-1.697-0.877-2.599  c-0.15-1.029-0.058-2.094-0.061-3.144c-0.004-1.803,0.258-2.11,2.046-2.389c0.021-0.296,0.041-0.604,0.064-0.911  c0.164-2.141,1.629-3.64,3.769-3.788c1.619-0.112,3.271-0.073,4.26,1.473c0.45,0.704,0.765,1.629,0.773,2.458  c0.063,6.41,0.037,12.821,0.036,19.232C-63.441,67.803-63.475,67.883-63.507,68.025z"/><path fill-rule="evenodd" clip-rule="evenodd" d="M-143.039,17.235c4.485,0,8.917,0,13.429,0c0,0.551,0,1.053,0,1.556  c0.004,2.579,0.022,5.157,0.007,7.735c-0.012,2.044-1.385,3.406-3.42,3.416c-2.21,0.011-4.42,0.013-6.63-0.001  c-2.023-0.013-3.414-1.404-3.421-3.425c-0.011-2.862-0.002-5.724,0-8.586C-143.074,17.71-143.052,17.491-143.039,17.235z"/><path fill-rule="evenodd" clip-rule="evenodd" d="M-97.755,55.812c0.353-0.022,0.576-0.05,0.799-0.05  c4.819-0.001,9.639,0.02,14.458-0.008c2.06-0.012,3.698,0.672,4.496,2.659c0.284,0.706,0.274,1.546,0.318,2.33  c0.047,0.847-0.015,1.7-0.001,2.55c0.011,0.669-0.241,1.158-0.943,1.143c-0.695-0.016-0.934-0.529-0.93-1.181  c0.007-1.105,0.025-2.212-0.005-3.316c-0.039-1.414-1.095-2.325-2.604-2.205c-0.16,1.754-0.324,3.523-0.481,5.294  c-0.073,0.818-0.122,1.639-0.201,2.457c-0.175,1.805-1.607,3.166-3.477,3.213c-1.955,0.05-3.913,0.046-5.868,0.001  c-1.844-0.042-3.223-1.29-3.446-3.132c-0.205-1.687-0.346-3.383-0.45-5.079c-0.081-1.32-0.283-2.577-1.097-3.671  C-97.388,56.549-97.521,56.233-97.755,55.812z M-89.741,66.514c-0.663,0-1.199-0.027-1.729,0.014  c-0.204,0.016-0.397,0.184-0.595,0.283c0.195,0.106,0.389,0.303,0.585,0.307c1.417,0.026,2.833,0.021,4.25,0.004  c0.215-0.003,0.429-0.122,0.643-0.188c-0.004-0.108-0.009-0.218-0.013-0.326c-0.769-0.054-1.537-0.107-2.354-0.164  c0-2.431,0.016-4.808-0.015-7.184c-0.005-0.419,0.297-0.995-0.378-1.232c-0.131,0.413-0.37,0.824-0.376,1.239  C-89.76,61.643-89.741,64.021-89.741,66.514z M-88.76,58.608c0.528,0.558,1.712,0.75,1.985,0.468  c0.078-0.08,0.008-0.447-0.002-0.448C-87.374,58.605-87.971,58.608-88.76,58.608z M-87.625,63.943c0,0.004,0,0.008,0,0.011  c0.168,0,0.352,0.043,0.501-0.011c0.183-0.064,0.337-0.21,0.503-0.32c-0.17-0.105-0.331-0.278-0.512-0.302  c-0.358-0.046-0.73-0.034-1.09,0.009c-0.121,0.015-0.222,0.197-0.332,0.303c0.113,0.104,0.211,0.26,0.344,0.298  C-88.029,63.982-87.822,63.943-87.625,63.943z M-91.171,63.956c0.022,0.047,0.045,0.094,0.067,0.141  c0.311-0.162,0.623-0.324,0.934-0.486c-0.347-0.102-0.69-0.213-1.041-0.299c-0.134-0.033-0.296-0.044-0.42,0.003  c-0.163,0.062-0.3,0.189-0.448,0.289c0.161,0.117,0.309,0.264,0.487,0.343C-91.474,63.998-91.313,63.956-91.171,63.956z   M-91.071,58.54c-0.021-0.045-0.041-0.091-0.062-0.136c-0.313,0.152-0.626,0.305-0.939,0.457c0.34,0.108,0.678,0.225,1.021,0.32  c0.104,0.029,0.237,0.034,0.335-0.005c0.188-0.075,0.362-0.188,0.541-0.286c-0.186-0.117-0.364-0.251-0.561-0.343  C-90.828,58.504-90.958,58.54-91.071,58.54z M-88.558,60.172c-0.003,0.183-0.005,0.367-0.008,0.55c0.58,0,1.16,0.009,1.74-0.011  c0.069-0.002,0.198-0.165,0.185-0.23c-0.024-0.115-0.131-0.302-0.21-0.305C-87.42,60.152-87.989,60.168-88.558,60.172z   M-91.179,60.868c0.017-0.04,0.034-0.079,0.051-0.119c0.084,0,0.177,0.022,0.252-0.004c0.238-0.084,0.47-0.186,0.704-0.28  c-0.246-0.117-0.49-0.237-0.739-0.349c-0.047-0.021-0.116-0.019-0.167-0.002c-0.333,0.111-0.665,0.23-0.997,0.347  C-91.776,60.597-91.478,60.732-91.179,60.868z M-86.633,65.04c-0.636,0-1.271,0-1.986,0C-88.173,65.646-87.27,65.699-86.633,65.04z   M-91.083,64.907c-0.022-0.044-0.044-0.089-0.066-0.133c-0.308,0.156-0.616,0.313-0.924,0.47c0.318,0.096,0.633,0.202,0.955,0.281  c0.133,0.032,0.294,0.041,0.419-0.004c0.187-0.065,0.353-0.189,0.528-0.288c-0.163-0.108-0.315-0.245-0.493-0.317  C-90.785,64.867-90.942,64.907-91.083,64.907z M-88.554,61.877c0.757,0.627,1.594,0.558,1.94,0  C-87.291,61.877-87.922,61.877-88.554,61.877z M-90.167,62.303c0.004-0.122,0.009-0.243,0.013-0.365  c-0.534-0.362-1.155-0.19-1.752-0.127c-0.055,0.005-0.138,0.183-0.125,0.268c0.013,0.084,0.129,0.212,0.204,0.215  C-91.275,62.311-90.721,62.303-90.167,62.303z"/><path fill-rule="evenodd" clip-rule="evenodd" d="M-113.084,44.772c4.047,0,8.007,0,12.041,0c0,0.358,0.024,0.688-0.004,1.013  c-0.333,3.952-0.669,7.904-1.018,11.854c-0.13,1.479-1.367,2.695-2.875,2.749c-1.529,0.054-3.062,0.055-4.59,0  c-1.498-0.055-2.771-1.246-2.871-2.756c-0.277-4.155-0.487-8.315-0.721-12.474C-113.128,45.052-113.102,44.943-113.084,44.772z   M-106.685,57.62c0-3.463,0.001-6.693-0.002-9.923c0-0.253-0.005-0.513-0.066-0.755c-0.024-0.098-0.204-0.22-0.312-0.218  c-0.101,0.002-0.263,0.139-0.285,0.24c-0.052,0.246-0.049,0.506-0.049,0.76c-0.004,2.976-0.005,5.952-0.006,8.929  c0,0.271,0,0.543,0,0.772c-0.783,0.264-1.582-0.158-2.34,0.392c1.03,0.474,4.741,0.393,5.418-0.197  C-105.2,57.62-105.891,57.62-106.685,57.62z M-106.496,47.487c0.718,0.42,1.294,0.332,1.868,0.17  c0.05-0.014,0.056-0.186,0.082-0.284c-0.477-0.066-0.953-0.147-1.433-0.188C-106.085,47.176-106.205,47.311-106.496,47.487z   M-106.299,51.734c0.002,0.123,0.004,0.246,0.006,0.369c0.596,0.094,1.197,0.306,1.77-0.106c-0.002-0.087-0.004-0.175-0.006-0.263  C-105.119,51.734-105.709,51.734-106.299,51.734z M-106.297,56.179c0.623,0.608,1.342,0.579,1.894,0  C-105.12,56.179-105.708,56.179-106.297,56.179z M-107.831,56.627c0-0.179,0-0.356,0-0.534c-0.515,0-1.031-0.009-1.546,0.011  c-0.066,0.003-0.192,0.173-0.175,0.231c0.033,0.11,0.145,0.274,0.231,0.278C-108.825,56.641-108.328,56.627-107.831,56.627z   M-107.837,47.749c0.003-0.169,0.006-0.338,0.009-0.507c-0.511-0.013-1.023-0.035-1.534-0.028c-0.069,0.001-0.203,0.163-0.189,0.227  c0.023,0.113,0.131,0.291,0.212,0.295C-108.84,47.762-108.338,47.749-107.837,47.749z M-107.842,52.088  c-0.576-0.641-1.302-0.612-1.831,0C-108.991,52.088-108.417,52.088-107.842,52.088z M-106.261,49.23  c0.583-0.03,1.165-0.061,1.747-0.091C-105.12,48.507-105.867,48.537-106.261,49.23z M-106.26,54.583  c-0.012,0.126-0.025,0.252-0.037,0.378c0.578,0.317,1.171,0.244,1.77,0.048c0.007-0.11,0.014-0.222,0.021-0.332  C-105.091,54.646-105.675,54.614-106.26,54.583z M-106.473,53.536c0.777,0,1.358,0,2.074,0  C-105.002,52.963-105.783,52.956-106.473,53.536z M-104.332,50.294c-0.778,0-1.367,0-2.041,0  C-105.863,50.832-105.097,50.856-104.332,50.294z M-109.541,54.594c-0.016,0.146-0.032,0.291-0.048,0.437  c0.472,0.037,0.945,0.095,1.417,0.098c0.108,0.001,0.218-0.185,0.327-0.285c-0.125-0.083-0.247-0.229-0.377-0.238  C-108.66,54.574-109.101,54.594-109.541,54.594z M-107.65,53.576c-0.764-0.691-1.627-0.626-1.902,0  C-108.973,53.576-108.417,53.576-107.65,53.576z M-109.737,50.233c0.707,0.676,1.588,0.622,1.899,0  C-108.427,50.233-108.986,50.233-109.737,50.233z M-107.638,49.128c-0.75-0.629-1.527-0.601-2.002,0  C-108.991,49.128-108.425,49.128-107.638,49.128z"/><path fill-rule="evenodd" clip-rule="evenodd" d="M-136.465,50.966c2.739,0.514,4.848,1.861,6.252,4.213  c1.941,3.25,1.551,7.317-0.958,10.202c-2.402,2.762-6.455,3.706-9.854,2.295c-3.413-1.417-5.625-4.914-5.366-8.483  c0.287-3.963,2.773-7.066,6.501-7.974c0.805-0.195,0.997-0.518,0.985-1.296c-0.049-3.229-0.035-6.461-0.024-9.691  c0.001-0.357,0.004-0.853,0.219-1.038c0.342-0.295,0.878-0.557,1.304-0.519c0.675,0.06,0.944,0.652,0.945,1.314  c0.003,1.87-0.003,3.741-0.005,5.611C-136.466,47.38-136.465,49.16-136.465,50.966z M-137.675,65.898  c3.473-0.015,6.271-2.812,6.272-6.271c0.001-3.481-2.896-6.377-6.331-6.328c-3.482,0.05-6.251,2.839-6.255,6.301  C-143.994,63.123-141.197,65.913-137.675,65.898z"/><path fill-rule="evenodd" clip-rule="evenodd" d="M-35.262-10.891c0-1.525,0-2.993,0-4.461c0-0.34-0.017-0.683,0.011-1.021  c0.076-0.935,0.654-1.509,1.506-1.524c0.885-0.016,1.545,0.58,1.576,1.542c0.044,1.417,0.016,2.836,0.018,4.254  c0,0.391,0,0.782,0,1.213c0.523,0.037,0.973,0.038,1.412,0.105c1.014,0.155,1.711,0.892,1.718,1.91  c0.023,3.176,0.025,6.354-0.003,9.53c-0.01,1.086-0.793,1.896-1.88,1.924c-1.871,0.047-3.745,0.049-5.615-0.002  c-1.12-0.031-1.882-0.876-1.889-2.01c-0.017-3.12-0.017-6.24,0-9.36c0.006-1.109,0.711-1.863,1.809-2.005  C-36.186-10.849-35.767-10.856-35.262-10.891z M-33.656-15.095c0.221-0.369,0.457-0.589,0.443-0.792  c-0.012-0.167-0.36-0.469-0.487-0.435c-0.213,0.056-0.488,0.318-0.51,0.518C-34.229-15.633-33.93-15.426-33.656-15.095z"/><path fill-rule="evenodd" clip-rule="evenodd" d="M-65.085-9.249c-6.377,0-12.605,0-18.965,0c0.043-2.776,1.202-4.958,3.375-6.519  c3.528-2.534,7.324-2.739,11.125-0.691C-66.774-14.963-65.229-12.564-65.085-9.249z"/><path fill-rule="evenodd" clip-rule="evenodd" d="M-103.589,12.567c4.618,0,9.237,0.015,13.854-0.015  c0.779-0.005,0.975,0.25,0.892,0.994c-0.306,2.766-1.944,4.409-4.469,5.199c-3.22,1.007-6.482,0.996-9.69-0.074  c-1.943-0.647-3.409-1.867-4.032-3.928c-0.059-0.194-0.364-0.436-0.565-0.446c-2.86-0.146-5.722-0.259-8.584-0.37  c-0.566-0.022-1.145,0.062-1.695-0.032c-0.285-0.048-0.521-0.38-0.78-0.584c0.264-0.231,0.495-0.539,0.801-0.671  c0.264-0.113,0.613-0.025,0.925-0.025c4.447,0,8.895,0,13.342,0C-103.589,12.599-103.589,12.583-103.589,12.567z"/><path fill-rule="evenodd" clip-rule="evenodd" d="M-41.712-18.025c-0.049,2.502-0.882,4.65-2.682,6.331  c-0.6,0.56-0.828,1.057-0.587,1.807c0.042,0.129,0.022,0.278,0.037,0.496c-3.314,0-6.602,0-10.091,0  c0.866-1.424-0.233-2.055-0.962-2.885c-1.418-1.615-2.075-3.537-2.133-5.748C-52.646-18.025-47.199-18.025-41.712-18.025z"/><path fill-rule="evenodd" clip-rule="evenodd" d="M-66.771-1.56c1.198,0,2.412,0.017,3.625-0.007  c0.651-0.013,1.119,0.111,1.13,0.898c0.012,0.832-0.486,0.975-1.167,0.965c-1.187-0.016-2.374-0.004-3.526-0.004  c-0.07,0.088-0.13,0.129-0.132,0.171c-0.048,1.866-0.03,1.883-2.019,1.875c-3.939-0.016-7.878-0.004-11.817-0.005  c-1.52,0-1.556-0.036-1.607-1.556c-0.004-0.136-0.025-0.271-0.046-0.489c-1.246,0-2.458-0.018-3.668,0.007  c-0.705,0.014-1.157-0.173-1.142-0.986c0.015-0.808,0.524-0.881,1.153-0.873c1.187,0.017,2.375,0.005,3.527,0.005  c0.071-0.085,0.131-0.123,0.135-0.167c0.157-1.524,0.156-1.525,1.67-1.525c3.967,0,7.935,0,11.902,0  C-67.053-3.25-67.053-3.25-66.771-1.56z"/><path fill-rule="evenodd" clip-rule="evenodd" d="M-72.988,7.879c0.725,0,1.36,0,2.099,0c0,1.304,0,2.57,0,3.837  c0,0.794-0.025,1.589,0.012,2.381c0.041,0.87,0.209,1.645,1.174,2.063c0.695,0.301,0.971,0.997,0.971,1.763  c0.001,3.629,0.008,7.258-0.004,10.887c-0.003,1.076-0.561,1.63-1.621,1.647c-1.077,0.018-2.155,0.021-3.232-0.002  c-0.967-0.021-1.543-0.572-1.548-1.541c-0.019-3.686-0.045-7.372,0.03-11.056c0.011-0.562,0.404-1.381,0.86-1.615  c1.103-0.567,1.242-1.458,1.253-2.472c0.018-1.644,0.005-3.289,0.005-4.933C-72.987,8.534-72.988,8.23-72.988,7.879z   M-70.046,22.456c0-0.953,0-1.855,0-2.737c-1.326,0-2.556,0-3.795,0c0,0.954,0,1.837,0,2.737  C-72.528,22.456-71.293,22.456-70.046,22.456z"/><path fill-rule="evenodd" clip-rule="evenodd" d="M-109.381,22.432c0,1.579,0.062,3.079-0.017,4.572  c-0.082,1.563-1.453,2.886-3.026,2.919c-2.464,0.052-4.93,0.05-7.394-0.002c-1.522-0.032-2.906-1.354-2.988-2.864  c-0.082-1.521-0.018-3.049-0.018-4.625C-118.35,22.432-113.916,22.432-109.381,22.432z"/><path fill-rule="evenodd" clip-rule="evenodd" d="M-123.291,64.573c0.155-1.642,0.355-3.28,0.437-4.926  c0.026-0.521-0.163-1.114-0.425-1.578c-1.87-3.303-3.464-6.701-3.705-10.562c-0.126-2.018,0.024-4.031,0.757-5.94  c0.608-1.584,1.494-2.976,3.341-3.289c1.905-0.323,3.567,0.819,4.397,3.098c1.258,3.457,1.211,6.98-0.033,10.404  c-0.798,2.195-1.91,4.279-2.938,6.385c-0.52,1.064-0.443,2.107-0.165,3.186c0.042,0.161,0.151,0.316,0.152,0.476  c0.01,1.87,0.04,3.742-0.032,5.61c-0.011,0.276-0.481,0.692-0.802,0.764c-0.512,0.113-0.847-0.277-0.86-0.809  c-0.024-0.935-0.007-1.87-0.007-2.806C-123.213,64.582-123.251,64.578-123.291,64.573z M-122.343,57.127  c0.089,0.003,0.178,0.006,0.267,0.009c0.233-3.244,0.585-6.485,0.659-9.733c0.056-2.454-0.231-4.917-0.398-7.373  c-0.026-0.378-0.229-0.745-0.381-1.212C-123.582,40.383-123.585,52.825-122.343,57.127z M-123.156,56.473  c0.097-0.018,0.194-0.035,0.291-0.053c-0.733-5.738-1.16-11.479-0.286-17.283c-0.421,0.649-0.835,1.32-1.03,2.049  c-0.742,2.772-0.862,5.609-0.424,8.427C-124.247,51.919-123.648,54.188-123.156,56.473z M-121.429,39.105  c0.818,5.836,0.382,11.58-0.193,17.346c0.643-2.316,1.268-4.639,1.604-7.003c0.418-2.931,0.316-5.88-0.593-8.739  C-120.791,40.145-121.152,39.638-121.429,39.105z M-120.907,55.319c0.113-0.063,0.179-0.077,0.197-0.114  c1.762-3.566,2.839-7.265,2.117-11.295c-0.279-1.56-0.665-3.081-1.978-4.3C-118.756,44.944-119.404,50.119-120.907,55.319z   M-123.756,55.374c-1.466-5.192-2.146-10.397-0.333-15.689C-126.528,41.709-127.527,48.847-123.756,55.374z"/><path fill-rule="evenodd" clip-rule="evenodd" d="M-47.781-5.714c0.034,0.367,0.062,0.67,0.098,1.075  c0.806,0,1.589,0.016,2.372-0.005c0.68-0.019,0.985,0.277,0.975,0.961c-0.017,1.188-0.018,2.378,0,3.567  c0.011,0.694-0.321,0.969-0.987,0.955c-0.763-0.017-1.527-0.004-2.364-0.004c-0.42,1.348-1.484,1.568-2.738,1.509  c-1.017-0.048-2.038,0.005-3.057-0.012c-1.304-0.022-1.993-0.703-2.003-2c-0.015-1.925-0.002-3.85,0.004-5.775  c0-0.078,0.048-0.155,0.087-0.271C-52.885-5.714-50.377-5.714-47.781-5.714z M-47.686-3.46c0,1.102,0,1.991,0,3.08  c0.67-0.125,1.68-0.084,1.792-0.381c0.258-0.688,0.259-1.605,0-2.292C-46.007-3.356-47.007-3.324-47.686-3.46z"/><path fill-rule="evenodd" clip-rule="evenodd" d="M85.42,52.436c-0.167,2.96-1.061,5.729-3.837,7.65  c-0.426,0.296-0.666,1.134-0.671,1.723c-0.048,6.068-0.037,12.137-0.022,18.205c0.002,1.17-0.18,2.142-1.621,2.263  c-1.566,0.136-2.193-0.435-2.195-2.131c-0.013-6.07-0.02-12.137,0.013-18.207c0.006-0.976-0.22-1.581-1.111-2.195  c-4.538-3.138-4.599-11.696-0.183-15.018c2.16-1.625,4.81-1.485,6.842,0.429C84.66,47.065,85.346,49.534,85.42,52.436z"/><path fill-rule="evenodd" clip-rule="evenodd" d="M-79.65,80.757c-0.108,3.15-0.207,6.302-0.334,9.451  c-0.024,0.595,0.128,0.852,0.756,1.048c0.756,0.237,1.531,0.642,2.109,1.178c1.406,1.304,1.323,3.351-0.07,4.675  c-1.718,1.634-4.777,1.67-6.54,0.078c-1.771-1.6-1.462-4.208,0.672-5.436c0.458-0.263,1.006-0.361,1.492-0.584  c0.219-0.1,0.546-0.313,0.549-0.481c0.037-2.068,0.312-4.191-0.058-6.192c-0.399-2.157-0.129-4.272-0.267-6.399  c-0.037-0.566,0.285-0.948,0.862-0.933c0.563,0.015,0.849,0.393,0.86,0.96c0.002,0.143,0.002,0.284,0.002,0.426  c0,0.736,0,1.474,0,2.211C-79.628,80.758-79.639,80.757-79.65,80.757z"/><path fill-rule="evenodd" clip-rule="evenodd" d="M-107.11,68.175c-1.048,0-2.096,0.007-3.144-0.002  c-1.616-0.014-2.244-0.744-2.077-2.347c0.114-1.098,0.182-2.2,0.278-3.3c0.09-1.026,0.479-1.431,1.506-1.44  c2.294-0.022,4.588-0.021,6.881,0.002c0.931,0.01,1.48,0.535,1.579,1.447c0.128,1.182,0.236,2.365,0.333,3.55  c0.106,1.297-0.559,2.031-1.873,2.076c-0.594,0.021-1.189,0.006-1.784,0.006c-0.567,0-1.133,0-1.699,0  C-107.11,68.17-107.11,68.172-107.11,68.175z M-107.015,63.918c-0.558,0.003-1.166,0.013-1.16,0.771  c0.005,0.69,0.563,0.747,1.105,0.748c0.538,0.001,1.086-0.029,1.113-0.733C-105.929,63.986-106.471,63.926-107.015,63.918z"/><path fill-rule="evenodd" clip-rule="evenodd" d="M17.925,43.108c0,2.535-0.038,5.083,0.033,7.629c0.015,0.517,0.449,1.02,0.69,1.53  c0.263-0.497,0.733-0.986,0.754-1.493c0.085-2.127-0.019-4.262,0.079-6.39c0.022-0.48,0.573-0.939,0.88-1.406  c0.335,0.457,0.942,0.904,0.96,1.375c0.09,2.179-0.025,4.367,0.035,6.549c0.013,0.457,0.467,0.903,0.717,1.352  c0.242-0.453,0.675-0.9,0.688-1.359c0.068-2.599,0.031-5.201,0.031-7.783c1.827-0.143,2.417,0.275,2.428,1.793  c0.037,4.317,0.046,8.63-0.009,12.945c-0.025,1.972-0.592,2.511-2.806,2.956c-0.028,0.567-0.079,1.184-0.079,1.8  c-0.007,5.806-0.007,11.611,0,17.418c0,1.168-0.204,2.144-1.646,2.256c-1.57,0.124-2.178-0.434-2.183-2.147  c-0.017-5.966-0.028-11.934,0.002-17.901c0.004-0.964-0.056-1.599-1.273-1.694c-1.253-0.095-1.58-1.181-1.635-2.227  c-0.094-1.753-0.08-3.512-0.086-5.269c-0.011-2.665-0.028-5.327,0.008-7.99C15.536,43.376,16.066,42.958,17.925,43.108z"/><path fill-rule="evenodd" clip-rule="evenodd" d="M-96.375,3.146c0.208-7.486,0.51-14.879,2.044-22.157  c0.102-0.042,0.203-0.084,0.305-0.126c0.275,0.468,0.706,0.907,0.796,1.407c0.284,1.584,0.496,3.186,0.634,4.79  c0.238,2.765,0.38,5.537,0.604,8.303c0.048,0.597-0.097,0.904-0.704,0.976c-0.25,0.03-0.488,0.163-0.738,0.189  c-0.519,0.053-0.618,0.354-0.619,0.816c-0.003,1.53-0.038,3.06-0.068,4.589c-0.007,0.393-0.041,0.786-0.064,1.214  C-94.91,3.146-95.577,3.146-96.375,3.146z"/><path fill-rule="evenodd" clip-rule="evenodd" d="M-58.703,21.477c2.505,0,4.877,0,7.362,0c-0.125,1.2-0.242,2.367-0.372,3.534  c-0.15,1.352-0.308,2.703-0.472,4.052c-0.119,0.977-0.823,1.668-1.8,1.72c-0.735,0.039-1.475,0.034-2.211,0.002  c-0.961-0.042-1.719-0.644-1.819-1.592C-58.281,26.658-58.472,24.116-58.703,21.477z"/><path fill-rule="evenodd" clip-rule="evenodd" d="M-71.253,89.935c0-1.837,0.276-3.677-0.07-5.39  c-0.425-2.098-0.111-4.16-0.279-6.229c-0.05-0.616,0.148-1.131,0.821-1.149c0.726-0.02,0.913,0.504,0.905,1.16  c-0.02,1.729,0.26,3.515-0.082,5.175c-0.402,1.956-0.131,3.876-0.275,5.805c-0.015,0.193,0.016,0.391,0.025,0.573  c1.906,0.542,2.122,0.805,2.318,2.808c0.1,1.016,0.191,2.032,0.292,3.048c0.137,1.382-0.797,2.525-2.179,2.613  c-0.649,0.041-1.306,0.04-1.956-0.001c-1.325-0.083-2.301-1.227-2.184-2.545c0.105-1.186,0.224-2.37,0.366-3.552  C-73.355,90.627-72.946,90.214-71.253,89.935z M-70.668,96.714c0.38-0.708,0.323-3.761-0.081-4.243  C-71.215,93.122-71.155,96.29-70.668,96.714z M-69.821,92.486c0,1.403,0,2.807,0,4.274C-69.279,96.343-69.197,93.184-69.821,92.486z   M-71.651,92.493c-0.622,0.658-0.554,3.829,0,4.296C-71.651,95.301-71.651,93.897-71.651,92.493z"/><path fill-rule="evenodd" clip-rule="evenodd" d="M-88.575,81.019c-0.114,2.378-0.229,4.958-0.367,7.536  c-0.029,0.534,0.105,0.853,0.628,1.123c0.966,0.5,1.422,1.441,1.678,2.45c0.464,1.824,0.37,3.609-0.685,5.229  c-1.071,1.646-2.888,1.704-4.091,0.174c-1.448-1.842-1.389-5.461,0.123-7.248c0.127-0.15,0.26-0.349,0.429-0.402  c0.998-0.315,0.949-1.089,0.923-1.904c-0.037-1.132,0.219-2.326-0.062-3.385c-0.53-1.997-0.156-3.986-0.302-5.971  c-0.013-0.169-0.003-0.34,0.001-0.51c0.014-0.566,0.302-0.946,0.864-0.954c0.569-0.007,0.86,0.364,0.86,0.94  C-88.575,79.005-88.575,79.911-88.575,81.019z M-90.488,96.688c0.44-0.734,0.409-1.991-0.02-2.513  C-90.919,94.706-90.933,96.027-90.488,96.688z M-90.572,93.861c0.556-1.008,0.483-2.262-0.105-2.728  C-90.845,92.022-90.912,92.821-90.572,93.861z M-89.57,94.056c0,1.063,0,1.957,0,3.015C-88.988,96.375-88.996,94.686-89.57,94.056z   M-89.564,90.828c0,0.992,0,1.889,0,2.977C-88.972,93.031-89.004,91.374-89.564,90.828z M-88.377,96.624  c0.416-0.508,0.438-1.83,0.042-2.438C-88.745,94.682-88.768,96.001-88.377,96.624z M-88.207,93.844c0-1.042,0-1.835,0-2.79  C-88.752,91.721-88.765,93.045-88.207,93.844z"/><path fill-rule="evenodd" clip-rule="evenodd" d="M-122.778,21.812c-0.247-2.335,1.151-3.931,3.403-3.958  c0.454-0.006,0.915,0.047,1.358-0.021c0.286-0.043,0.605-0.2,0.805-0.407c0.542-0.56,1.668-0.561,2.214-0.002  c0.202,0.207,0.52,0.366,0.806,0.41c0.443,0.068,0.905,0.012,1.358,0.019c2.243,0.032,3.65,1.642,3.402,3.958  C-113.856,21.812-118.291,21.812-122.778,21.812z"/><path fill-rule="evenodd" clip-rule="evenodd" d="M-74.563-8.526c3.798,0,7.596,0,11.394,0.001c0.227,0,0.5-0.072,0.668,0.029  c0.229,0.138,0.48,0.394,0.52,0.632c0.023,0.142-0.317,0.446-0.538,0.502c-0.347,0.087-0.731,0.026-1.1,0.03  c-0.494,0.005-1.038-0.13-1.316,0.481c-0.029,0.064-0.132,0.121-0.209,0.134c-1.065,0.193-2.13,0.523-3.199,0.539  c-4.166,0.063-8.333,0.037-12.499,0.007c-0.396-0.003-0.783-0.305-1.19-0.391c-0.407-0.086-0.846-0.026-1.249-0.121  c-0.405-0.095-0.782-0.306-1.175-0.457c-0.198-0.076-0.401-0.174-0.606-0.185c-0.509-0.028-1.03,0.046-1.525-0.039  c-0.235-0.041-0.423-0.353-0.632-0.542c0.194-0.204,0.358-0.463,0.594-0.593c0.175-0.097,0.443-0.029,0.67-0.029  C-82.159-8.527-78.361-8.527-74.563-8.526z"/><path fill-rule="evenodd" clip-rule="evenodd" d="M-129.646,16.637c-4.467,0-8.882,0-13.295,0c-0.467-1.784,0.809-3.656,2.668-3.895  c0.532-0.068,1.076-0.054,1.614-0.054c0.534,0,1.001,0.033,1.378-0.544c0.337-0.517,1.592-0.333,2.07,0.127  c0.21,0.203,0.534,0.348,0.826,0.395c0.415,0.066,0.849,0.007,1.274,0.02C-130.775,12.753-129.468,14.206-129.646,16.637z"/><path fill-rule="evenodd" clip-rule="evenodd" d="M-103.953,40.892c1.979,0.584,2.881,1.768,2.695,3.483c-3.864,0-7.732,0-11.597,0  c-0.27-1.647,0.549-2.74,2.588-3.492c0.014-0.024,0.039-0.049,0.04-0.073c0.023-2.419,0.313-1.979,2.208-2.01  c0.935-0.015,1.869,0.002,2.804,0.006c1.114,0.005,1.25,0.143,1.262,1.29C-103.95,40.348-103.953,40.6-103.953,40.892z"/><path fill-rule="evenodd" clip-rule="evenodd" d="M-111.779,93.991c2.328,0,4.528,0,6.784,0c0.057,1.637-0.556,2.841-1.885,3.625  c-1.479,0.872-3.013,0.834-4.407-0.148c-1.229-0.867-1.919-2.061-1.536-3.658c0.045-0.189,0.03-0.395,0.03-0.593  c0.001-4.508,0.018-9.017-0.024-13.524c-0.005-0.515-0.207-1.156-0.551-1.513c-0.758-0.786-2.01-0.304-2.282,0.825  c-0.098,0.405-0.141,0.899-0.671,0.682c-0.208-0.086-0.356-0.671-0.298-0.985c0.222-1.185,1.4-2.019,2.559-1.905  c1.344,0.131,2.277,1.175,2.279,2.607c0.009,4.479,0.002,8.96,0.002,13.439C-111.779,93.178-111.779,93.513-111.779,93.991z"/><path fill-rule="evenodd" clip-rule="evenodd" d="M-103.224,93.976c1.079,0,2.172,0,3.381,0c0-0.402,0-0.731,0-1.06  c0-4.787,0-9.574,0-14.361c0-0.198-0.063-0.427,0.014-0.587c0.117-0.243,0.331-0.438,0.504-0.653  c0.161,0.227,0.362,0.436,0.47,0.686c0.073,0.167,0.015,0.391,0.015,0.589c0,4.787,0,9.574,0,14.36c0,0.307,0,0.612,0,1.003  c1.168,0,2.26,0,3.42,0c0.154,1.543-0.407,2.686-1.571,3.495c-1.434,0.997-2.967,1.028-4.481,0.157  C-102.773,96.855-103.444,95.453-103.224,93.976z"/><path fill-rule="evenodd" clip-rule="evenodd" d="M-100.009-9.027c-0.878-0.034-1.09-0.5-1.081-1.248  c0.031-2.552,0.012-5.104,0.016-7.657c0-0.265,0.029-0.529,0.044-0.793c0.09-0.006,0.18-0.012,0.27-0.019  c0.302,2.519,0.604,5.037,0.907,7.561c0.632,0.279,0.796,0.001,0.866-0.571c0.268-2.193,0.571-4.382,0.869-6.572  c0.021-0.151,0.105-0.294,0.346-0.434c0.021,0.256,0.062,0.512,0.062,0.768c0.005,2.552-0.017,5.104,0.015,7.657  c0.009,0.776-0.187,1.284-1.109,1.3c0,1.502-0.375,3.103,0.083,4.412c0.813,2.32,0.166,4.612,0.441,6.892  c0.104,0.86-0.371,0.984-1.078,0.968c-0.68-0.016-1.221-0.003-1.19-0.963c0.058-1.841,0.003-3.686,0.031-5.529  c0.004-0.305,0.192-0.607,0.297-0.911c0.069-0.201,0.201-0.399,0.204-0.601C-100-6.153-100.009-7.542-100.009-9.027z"/><path fill-rule="evenodd" clip-rule="evenodd" d="M-122.861,81.389c-3.016,0-5.891,0-8.848,0c0-1.097-0.067-2.026,0.021-2.941  c0.071-0.741,0.646-1.139,1.369-1.15c1.984-0.032,3.97-0.033,5.955-0.005c0.871,0.012,1.451,0.577,1.493,1.437  C-122.825,79.658-122.861,80.591-122.861,81.389z"/><path fill-rule="evenodd" clip-rule="evenodd" d="M-133.925,81.327c-2.971,0-5.872,0-8.822,0c0-0.887-0.07-1.904,0.023-2.905  c0.068-0.741,0.662-1.118,1.385-1.128c1.983-0.025,3.967-0.024,5.949-0.002c0.821,0.009,1.363,0.491,1.445,1.284  C-133.856,79.437-133.925,80.313-133.925,81.327z"/><path fill-rule="evenodd" clip-rule="evenodd" d="M-80.674,27.547c-0.796-0.176-1.496-0.272-2.15-0.5  c-0.378-0.131-0.682-0.475-1.019-0.723c0.343-0.248,0.653-0.588,1.036-0.721c0.605-0.21,1.259-0.28,1.908-0.592  c-0.575-0.122-1.172-0.185-1.719-0.384c-0.438-0.16-0.817-0.485-1.222-0.736c0.384-0.267,0.756-0.554,1.157-0.793  c0.186-0.111,0.426-0.131,0.683-0.203c0-0.507,0-1.008,0-1.626c-0.577,0-1.134,0.014-1.69-0.003  c-0.693-0.021-1.152-0.364-1.159-1.082c-0.007-0.723,0.464-1.086,1.145-1.101c1.389-0.028,2.778-0.034,4.166,0.001  c0.685,0.018,1.13,0.424,1.112,1.136c-0.017,0.67-0.447,1.018-1.108,1.041c-0.56,0.021-1.122,0.004-1.785,0.004  c0.082,1.29,0.149,2.55-1.581,2.666c0.763,0.178,1.536,0.323,2.282,0.554c0.254,0.079,0.442,0.375,0.66,0.572  c-0.224,0.222-0.411,0.559-0.678,0.646c-0.741,0.24-1.515,0.376-2.295,0.702c0.672,0.152,1.362,0.253,2.01,0.476  c0.357,0.123,0.643,0.451,0.961,0.686c-0.293,0.267-0.562,0.722-0.884,0.764c-0.937,0.122-1.15,0.609-1.056,1.443  c0.043,0.387-0.048,0.789-0.213,1.188c-0.595-0.632-0.349-1.396-0.356-2.093C-82.482,27.767-81.363,28.047-80.674,27.547z"/><path fill-rule="evenodd" clip-rule="evenodd" d="M-65.601,19.873c1.716,0,3.322,0,4.896,0c0,1.713,0.087,3.38-0.034,5.031  c-0.069,0.938-0.616,1.786-1.492,2.261c-0.426,0.231-0.534,0.5-0.514,0.936c0.028,0.62,0.007,1.241,0.007,1.776  c0.336,0.523,1.408-0.244,1.311,0.955c-1.017,0-1.975,0.023-2.929-0.02c-0.182-0.008-0.352-0.279-0.527-0.429  c0.044-0.076,0.089-0.152,0.134-0.229c0.384-0.03,0.769-0.061,1.275-0.101c0-0.762,0.021-1.519-0.016-2.273  c-0.009-0.175-0.181-0.408-0.343-0.5c-1.085-0.615-1.645-1.617-1.739-2.771C-65.693,22.997-65.601,21.465-65.601,19.873z   M-61.396,22.663c-1.187,0-2.299,0-3.446,0c-0.111,1.239-0.088,2.379,0.692,3.367c0.689,0.873,1.387,0.869,2.084,0.002  C-61.271,25.042-61.287,23.895-61.396,22.663z M-61.397,20.608c-1.193,0-2.289,0-3.407,0c0,0.417,0,0.788,0,1.167  c1.172,0,2.266,0,3.407,0C-61.397,21.373-61.397,21.019-61.397,20.608z"/><path fill-rule="evenodd" clip-rule="evenodd" d="M-95.901,42.72c2.011,0,3.905,0,5.94,0c0,0.86,0.001,1.697,0,2.535  c-0.002,1.304,0.003,2.608-0.012,3.911c-0.013,1.075-0.612,1.676-1.687,1.694c-0.878,0.016-1.758,0.022-2.636-0.004  c-0.904-0.027-1.572-0.579-1.59-1.446C-95.932,47.207-95.901,45.002-95.901,42.72z M-90.747,48.291c0-1.592,0-3.177,0-4.764  c-1.48,0-2.898,0-4.344,0c0,1.636,0,3.178,0,4.764C-93.629,48.291-92.224,48.291-90.747,48.291z M-95.094,48.898  c-0.115,0.823,0.224,1.2,0.958,1.216c0.816,0.019,1.633,0.028,2.448,0c0.729-0.025,1.054-0.428,0.952-1.217  C-92.179,48.898-93.603,48.898-95.094,48.898z"/><path fill-rule="evenodd" clip-rule="evenodd" d="M-51.521,20.843c-2.359,0-4.662,0-6.996,0c-0.125-0.996,0.266-1.656,1.08-2.131  c0.202-0.118,0.451-0.375,0.455-0.573c0.013-0.648,0.328-0.83,0.912-0.811c0.734,0.024,1.475-0.044,2.201,0.033  c0.283,0.03,0.743,0.332,0.761,0.541c0.043,0.5,0.253,0.711,0.668,0.935C-51.701,19.234-51.401,19.911-51.521,20.843z"/><path fill-rule="evenodd" clip-rule="evenodd" d="M-82.739,42.742c0,2.271,0.035,4.477-0.018,6.68  c-0.021,0.878-0.685,1.41-1.596,1.434c-0.906,0.024-1.814,0.024-2.721,0c-0.882-0.024-1.54-0.541-1.558-1.369  c-0.049-2.231-0.017-4.463-0.017-6.745C-86.671,42.742-84.755,42.742-82.739,42.742z M-87.931,43.494  c0,1.962-0.003,3.827,0.002,5.692c0.002,0.586,0.348,0.902,0.897,0.922c0.874,0.033,1.761,0.077,2.622-0.037  c0.333-0.044,0.862-0.496,0.873-0.779c0.078-1.912,0.041-3.829,0.041-5.799C-85,43.494-86.402,43.494-87.931,43.494z"/><path fill-rule="evenodd" clip-rule="evenodd" d="M-90.158,42.164c-1.907,0-3.68,0-5.541,0c0-0.673-0.06-1.32,0.016-1.95  c0.093-0.777,0.62-1.192,1.397-1.213c0.903-0.025,1.81-0.032,2.713,0.007c0.878,0.038,1.381,0.589,1.411,1.479  C-90.144,41.018-90.158,41.55-90.158,42.164z"/><path fill-rule="evenodd" clip-rule="evenodd" d="M-82.959,42.157c-1.839,0-3.611,0-5.485,0c0-0.696-0.068-1.397,0.02-2.079  c0.084-0.664,0.601-1.042,1.249-1.068c1.016-0.041,2.038-0.032,3.052,0.032c0.665,0.042,1.101,0.471,1.155,1.149  C-82.919,40.83-82.959,41.475-82.959,42.157z"/><path fill-rule="evenodd" clip-rule="evenodd" d="M-109.113,24.317c0-0.532,0-0.999,0-1.516c0.251-0.024,0.468-0.063,0.685-0.063  c3.312-0.004,6.624-0.002,9.937-0.002c0.057,0,0.113,0.001,0.17,0c0.452-0.004,0.903,0.044,0.911,0.628  c0.007,0.582-0.428,0.645-0.891,0.644c-1.67-0.003-3.392-0.251-4.997,0.073c-1.669,0.337-3.301,0.156-4.944,0.27  C-108.516,24.371-108.792,24.332-109.113,24.317z"/><path fill-rule="evenodd" clip-rule="evenodd" d="M-143.314,17.545c0,0.485,0,0.842,0,1.302c-0.838,0-1.647,0.048-2.444-0.03  c-0.232-0.023-0.602-0.413-0.595-0.625c0.007-0.222,0.374-0.593,0.613-0.618C-144.967,17.495-144.181,17.545-143.314,17.545z"/><path fill-rule="evenodd" clip-rule="evenodd" d="M-129.285,17.544c0.819,0,1.554-0.057,2.271,0.029  c0.274,0.033,0.508,0.395,0.76,0.607c-0.238,0.225-0.458,0.611-0.718,0.642c-0.745,0.088-1.506,0.031-2.313,0.031  C-129.285,18.408-129.285,18.029-129.285,17.544z"/><path fill-rule="evenodd" clip-rule="evenodd" d="M-73.723-18.082c-0.596,0-1.125,0-1.715,0c-0.081-0.645,0.085-1.095,0.77-1.144  C-73.945-19.276-73.646-18.873-73.723-18.082z"/><path fill-rule="evenodd" clip-rule="evenodd" fill="#000000" d="M-49.701,79.897c0.343,0.508,0.72,0.822,0.684,1.078  c-0.038,0.267-0.453,0.622-0.741,0.662c-0.196,0.027-0.644-0.422-0.644-0.657C-50.402,80.692-50.051,80.404-49.701,79.897z"/><path fill-rule="evenodd" clip-rule="evenodd" fill="#000000" d="M-50.891,81.022c-0.535,0.313-0.869,0.665-1.121,0.614  c-0.267-0.054-0.607-0.479-0.63-0.764c-0.016-0.199,0.456-0.618,0.699-0.609C-51.66,80.273-51.388,80.641-50.891,81.022z"/><path fill-rule="evenodd" clip-rule="evenodd" fill="#000000" d="M-56.386,87.189c0.077,0.736,0.153,1.473,0.229,2.212  C-56.81,89.464-56.81,89.464-56.386,87.189z"/><path fill-rule="evenodd" clip-rule="evenodd" fill="#000000" d="M-89.741,66.514c0-2.493-0.019-4.871,0.018-7.247  c0.006-0.415,0.245-0.826,0.376-1.239c0.675,0.237,0.373,0.813,0.378,1.232c0.031,2.376,0.015,4.753,0.015,7.184  c0.817,0.057,1.585,0.11,2.354,0.164c0.004,0.108,0.009,0.218,0.013,0.326c-0.214,0.065-0.428,0.185-0.643,0.188  c-1.417,0.018-2.833,0.022-4.25-0.004c-0.197-0.004-0.391-0.2-0.585-0.307c0.198-0.1,0.391-0.268,0.595-0.283  C-90.94,66.486-90.404,66.514-89.741,66.514z"/><path fill-rule="evenodd" clip-rule="evenodd" fill="#000000" d="M-88.76,58.608c0.789,0,1.386-0.003,1.983,0.02  c0.011,0.001,0.08,0.368,0.002,0.448C-87.048,59.358-88.232,59.166-88.76,58.608z"/><path fill-rule="evenodd" clip-rule="evenodd" fill="#000000" d="M-87.625,63.943c-0.196,0-0.404,0.039-0.585-0.013  c-0.132-0.038-0.23-0.194-0.344-0.298c0.11-0.105,0.21-0.288,0.332-0.303c0.36-0.043,0.732-0.055,1.09-0.009  c0.181,0.023,0.342,0.196,0.512,0.302c-0.167,0.11-0.321,0.256-0.503,0.32c-0.149,0.054-0.333,0.011-0.501,0.011  C-87.625,63.951-87.625,63.947-87.625,63.943z"/><path fill-rule="evenodd" clip-rule="evenodd" fill="#000000" d="M-91.171,63.956c-0.142,0-0.303,0.042-0.421-0.01  c-0.178-0.079-0.326-0.226-0.487-0.343c0.148-0.1,0.286-0.228,0.448-0.289c0.124-0.047,0.287-0.036,0.42-0.003  c0.35,0.086,0.694,0.197,1.041,0.299c-0.312,0.162-0.623,0.324-0.934,0.486C-91.126,64.05-91.148,64.003-91.171,63.956z"/><path fill-rule="evenodd" clip-rule="evenodd" fill="#000000" d="M-91.071,58.54c0.113,0,0.243-0.036,0.336,0.008  c0.197,0.092,0.375,0.226,0.561,0.343c-0.179,0.098-0.353,0.211-0.541,0.286c-0.098,0.039-0.231,0.034-0.335,0.005  c-0.343-0.096-0.681-0.212-1.021-0.32c0.313-0.152,0.626-0.305,0.939-0.457C-91.112,58.449-91.092,58.495-91.071,58.54z"/><path fill-rule="evenodd" clip-rule="evenodd" fill="#000000" d="M-88.558,60.172c0.569-0.004,1.138-0.02,1.706,0.004  c0.079,0.003,0.187,0.189,0.21,0.305c0.013,0.065-0.116,0.229-0.185,0.23c-0.58,0.02-1.16,0.011-1.74,0.011  C-88.563,60.539-88.561,60.354-88.558,60.172z"/><path fill-rule="evenodd" clip-rule="evenodd" fill="#000000" d="M-91.179,60.868c-0.298-0.136-0.597-0.271-0.896-0.407  c0.332-0.116,0.664-0.235,0.997-0.347c0.051-0.017,0.12-0.019,0.167,0.002c0.249,0.111,0.493,0.231,0.739,0.349  c-0.234,0.095-0.466,0.196-0.704,0.28c-0.075,0.026-0.167,0.004-0.252,0.004C-91.145,60.789-91.162,60.828-91.179,60.868z"/><path fill-rule="evenodd" clip-rule="evenodd" fill="#000000" d="M-86.633,65.04c-0.636,0.659-1.54,0.605-1.986,0  C-87.905,65.04-87.269,65.04-86.633,65.04z"/><path fill-rule="evenodd" clip-rule="evenodd" fill="#000000" d="M-91.083,64.907c0.141,0,0.299-0.04,0.42,0.009  c0.178,0.072,0.33,0.209,0.493,0.317c-0.175,0.099-0.342,0.223-0.528,0.288c-0.125,0.045-0.286,0.036-0.419,0.004  c-0.322-0.079-0.637-0.186-0.955-0.281c0.308-0.156,0.616-0.313,0.924-0.47C-91.127,64.818-91.105,64.863-91.083,64.907z"/><path fill-rule="evenodd" clip-rule="evenodd" fill="#000000" d="M-88.554,61.877c0.632,0,1.264,0,1.94,0  C-86.96,62.435-87.797,62.504-88.554,61.877z"/><path fill-rule="evenodd" clip-rule="evenodd" fill="#000000" d="M-90.167,62.303c-0.554,0-1.107,0.008-1.66-0.01  c-0.075-0.003-0.191-0.131-0.204-0.215c-0.013-0.085,0.07-0.263,0.125-0.268c0.597-0.063,1.218-0.235,1.752,0.127  C-90.159,62.06-90.163,62.181-90.167,62.303z"/><path fill-rule="evenodd" clip-rule="evenodd" fill="#000000" d="M-106.685,57.62c0.793,0,1.485,0,2.358,0  c-0.678,0.59-4.388,0.671-5.418,0.197c0.759-0.55,1.558-0.128,2.34-0.392c0-0.229,0-0.501,0-0.772  c0.001-2.977,0.002-5.953,0.006-8.929c0-0.254-0.003-0.514,0.049-0.76c0.021-0.102,0.184-0.238,0.285-0.24  c0.107-0.002,0.287,0.12,0.312,0.218c0.061,0.242,0.066,0.502,0.066,0.755C-106.683,50.927-106.685,54.157-106.685,57.62z"/><path fill-rule="evenodd" clip-rule="evenodd" fill="#000000" d="M-106.496,47.487c0.292-0.176,0.411-0.311,0.517-0.302  c0.479,0.041,0.956,0.122,1.433,0.188c-0.026,0.099-0.032,0.27-0.082,0.284C-105.202,47.819-105.778,47.907-106.496,47.487z"/><path fill-rule="evenodd" clip-rule="evenodd" fill="#000000" d="M-106.299,51.734c0.59,0,1.18,0,1.77,0  c0.002,0.088,0.004,0.176,0.006,0.263c-0.572,0.412-1.174,0.2-1.77,0.106C-106.294,51.98-106.297,51.857-106.299,51.734z"/><path fill-rule="evenodd" clip-rule="evenodd" fill="#000000" d="M-106.297,56.179c0.588,0,1.177,0,1.894,0  C-104.955,56.758-105.674,56.787-106.297,56.179z"/><path fill-rule="evenodd" clip-rule="evenodd" fill="#000000" d="M-107.831,56.627c-0.497,0-0.994,0.014-1.489-0.014  c-0.086-0.004-0.199-0.168-0.231-0.278c-0.017-0.059,0.109-0.229,0.175-0.231c0.515-0.02,1.031-0.011,1.546-0.011  C-107.831,56.271-107.831,56.448-107.831,56.627z"/><path fill-rule="evenodd" clip-rule="evenodd" fill="#000000" d="M-107.837,47.749c-0.501,0-1.003,0.013-1.502-0.014  c-0.081-0.004-0.188-0.183-0.212-0.295c-0.013-0.063,0.121-0.226,0.189-0.227c0.511-0.007,1.023,0.016,1.534,0.028  C-107.831,47.41-107.834,47.579-107.837,47.749z"/><path fill-rule="evenodd" clip-rule="evenodd" fill="#000000" d="M-107.842,52.088c-0.574,0-1.148,0-1.831,0  C-109.144,51.476-108.418,51.447-107.842,52.088z"/><path fill-rule="evenodd" clip-rule="evenodd" fill="#000000" d="M-106.261,49.23c0.395-0.693,1.141-0.723,1.747-0.091  C-105.097,49.169-105.679,49.2-106.261,49.23z"/><path fill-rule="evenodd" clip-rule="evenodd" fill="#000000" d="M-106.26,54.583c0.584,0.031,1.168,0.063,1.753,0.094  c-0.007,0.11-0.014,0.222-0.021,0.332c-0.599,0.196-1.192,0.27-1.77-0.048C-106.285,54.835-106.272,54.709-106.26,54.583z"/><path fill-rule="evenodd" clip-rule="evenodd" fill="#000000" d="M-106.473,53.536c0.69-0.58,1.471-0.573,2.074,0  C-105.115,53.536-105.696,53.536-106.473,53.536z"/><path fill-rule="evenodd" clip-rule="evenodd" fill="#000000" d="M-104.332,50.294c-0.765,0.562-1.532,0.538-2.041,0  C-105.699,50.294-105.11,50.294-104.332,50.294z"/><path fill-rule="evenodd" clip-rule="evenodd" fill="#000000" d="M-109.541,54.594c0.439,0,0.881-0.02,1.318,0.011  c0.131,0.009,0.252,0.155,0.377,0.238c-0.109,0.101-0.219,0.286-0.327,0.285c-0.472-0.003-0.945-0.061-1.417-0.098  C-109.573,54.885-109.557,54.739-109.541,54.594z"/><path fill-rule="evenodd" clip-rule="evenodd" fill="#000000" d="M-107.65,53.576c-0.767,0-1.323,0-1.902,0  C-109.277,52.95-108.414,52.885-107.65,53.576z"/><path fill-rule="evenodd" clip-rule="evenodd" fill="#000000" d="M-109.737,50.233c0.75,0,1.31,0,1.899,0  C-108.149,50.855-109.03,50.909-109.737,50.233z"/><path fill-rule="evenodd" clip-rule="evenodd" fill="#000000" d="M-107.638,49.128c-0.787,0-1.353,0-2.002,0  C-109.166,48.528-108.388,48.5-107.638,49.128z"/><path fill-rule="evenodd" clip-rule="evenodd" fill="#000000" d="M-137.675,65.898c-3.521,0.015-6.318-2.775-6.314-6.298  c0.004-3.462,2.773-6.251,6.255-6.301c3.435-0.049,6.332,2.847,6.331,6.328C-131.405,63.087-134.202,65.884-137.675,65.898z   M-137.672,65.53c3.259-0.015,5.891-2.653,5.889-5.904c-0.002-3.305-2.659-5.95-5.954-5.93c-3.303,0.021-5.901,2.671-5.877,5.994  C-143.591,62.947-140.947,65.545-137.672,65.53z"/><path fill-rule="evenodd" clip-rule="evenodd" fill="#000000" d="M-33.656-15.095c-0.274-0.331-0.573-0.538-0.554-0.709  c0.022-0.2,0.297-0.462,0.51-0.518c0.126-0.034,0.475,0.268,0.487,0.435C-33.199-15.684-33.435-15.464-33.656-15.095z"/><path fill-rule="evenodd" clip-rule="evenodd" fill="#000000" d="M-70.046,22.456c-1.247,0-2.482,0-3.795,0c0-0.9,0-1.784,0-2.737  c1.239,0,2.469,0,3.795,0C-70.046,20.601-70.046,21.502-70.046,22.456z"/><path fill-rule="evenodd" clip-rule="evenodd" fill="#000000" d="M-122.343,57.127c-1.243-4.302-1.239-16.744,0.147-18.31  c0.152,0.467,0.355,0.834,0.381,1.212c0.167,2.457,0.454,4.919,0.398,7.373c-0.074,3.248-0.426,6.489-0.659,9.733  C-122.165,57.133-122.253,57.13-122.343,57.127z"/><path fill-rule="evenodd" clip-rule="evenodd" fill="#000000" d="M-123.156,56.473c-0.492-2.285-1.091-4.554-1.449-6.859  c-0.438-2.818-0.318-5.655,0.424-8.427c0.195-0.729,0.608-1.4,1.03-2.049c-0.874,5.804-0.447,11.545,0.286,17.283  C-122.962,56.438-123.059,56.455-123.156,56.473z"/><path fill-rule="evenodd" clip-rule="evenodd" fill="#000000" d="M-121.429,39.105c0.277,0.533,0.639,1.04,0.818,1.604  c0.909,2.859,1.011,5.808,0.593,8.739c-0.337,2.364-0.961,4.687-1.604,7.003C-121.047,50.685-120.611,44.941-121.429,39.105z"/><path fill-rule="evenodd" clip-rule="evenodd" fill="#000000" d="M-120.907,55.319c1.502-5.2,2.151-10.375,0.336-15.709  c1.313,1.22,1.698,2.74,1.978,4.3c0.722,4.03-0.354,7.729-2.117,11.295C-120.728,55.242-120.794,55.256-120.907,55.319z"/><path fill-rule="evenodd" clip-rule="evenodd" fill="#000000" d="M-123.756,55.374c-3.771-6.527-2.772-13.665-0.333-15.689  C-125.902,44.977-125.222,50.182-123.756,55.374z"/><path fill-rule="evenodd" clip-rule="evenodd" fill="#000000" d="M-47.686-3.46c0.679,0.136,1.679,0.104,1.792,0.406  c0.258,0.688,0.258,1.605,0,2.292c-0.111,0.297-1.122,0.256-1.792,0.381C-47.686-1.47-47.686-2.358-47.686-3.46z"/><path fill-rule="evenodd" clip-rule="evenodd" fill="#000000" d="M-107.015,63.919c0.544,0.007,1.086,0.067,1.059,0.784  c-0.027,0.704-0.576,0.734-1.113,0.733c-0.543-0.001-1.1-0.058-1.105-0.748C-108.181,63.931-107.573,63.921-107.015,63.919z"/><path fill-rule="evenodd" clip-rule="evenodd" fill="#000000" d="M-70.668,96.714c-0.487-0.424-0.547-3.592-0.081-4.243  C-70.345,92.953-70.288,96.006-70.668,96.714z"/><path fill-rule="evenodd" clip-rule="evenodd" fill="#000000" d="M-69.821,92.486c0.624,0.697,0.542,3.856,0,4.274  C-69.821,95.293-69.821,93.89-69.821,92.486z"/><path fill-rule="evenodd" clip-rule="evenodd" fill="#000000" d="M-71.651,92.493c0,1.404,0,2.808,0,4.296  C-72.205,96.322-72.273,93.151-71.651,92.493z"/><path fill-rule="evenodd" clip-rule="evenodd" fill="#000000" d="M-90.488,96.688c-0.445-0.661-0.432-1.982-0.02-2.513  C-90.079,94.697-90.048,95.954-90.488,96.688z"/><path fill-rule="evenodd" clip-rule="evenodd" fill="#000000" d="M-90.572,93.861c-0.34-1.04-0.272-1.839-0.105-2.728  C-90.089,91.6-90.017,92.854-90.572,93.861z"/><path fill-rule="evenodd" clip-rule="evenodd" fill="#000000" d="M-89.57,94.056c0.574,0.63,0.583,2.319,0,3.015  C-89.57,96.013-89.57,95.119-89.57,94.056z"/><path fill-rule="evenodd" clip-rule="evenodd" fill="#000000" d="M-89.564,90.828c0.56,0.546,0.592,2.203,0,2.977  C-89.564,92.717-89.564,91.82-89.564,90.828z"/><path fill-rule="evenodd" clip-rule="evenodd" fill="#000000" d="M-88.377,96.624c-0.391-0.623-0.368-1.942,0.042-2.438  C-87.938,94.794-87.961,96.116-88.377,96.624z"/><path fill-rule="evenodd" clip-rule="evenodd" fill="#000000" d="M-88.207,93.844c-0.559-0.799-0.546-2.123,0-2.79  C-88.207,92.009-88.207,92.802-88.207,93.844z"/><path fill-rule="evenodd" clip-rule="evenodd" fill="#000000" d="M-61.396,22.663c0.108,1.232,0.125,2.38-0.669,3.369  c-0.697,0.867-1.395,0.871-2.084-0.002c-0.78-0.987-0.803-2.128-0.692-3.367C-63.694,22.663-62.583,22.663-61.396,22.663z"/><path fill-rule="evenodd" clip-rule="evenodd" fill="#000000" d="M-61.397,20.608c0,0.411,0,0.765,0,1.167c-1.141,0-2.235,0-3.407,0  c0-0.379,0-0.75,0-1.167C-63.686,20.608-62.59,20.608-61.397,20.608z"/><path fill-rule="evenodd" clip-rule="evenodd" fill="#000000" d="M-90.747,48.291c-1.478,0-2.882,0-4.344,0c0-1.586,0-3.128,0-4.764  c1.446,0,2.864,0,4.344,0C-90.747,45.114-90.747,46.699-90.747,48.291z"/><path fill-rule="evenodd" clip-rule="evenodd" fill="#000000" d="M-95.094,48.898c1.491,0,2.916,0,4.358,0  c0.102,0.789-0.222,1.191-0.952,1.217c-0.815,0.028-1.632,0.018-2.448,0C-94.871,50.098-95.209,49.722-95.094,48.898z"/><path fill-rule="evenodd" clip-rule="evenodd" fill="#000000" d="M-87.931,43.494c1.529,0,2.931,0,4.435,0  c0,1.97,0.038,3.887-0.041,5.799c-0.011,0.283-0.54,0.735-0.873,0.779c-0.861,0.114-1.748,0.069-2.622,0.037  c-0.549-0.021-0.896-0.336-0.897-0.922C-87.934,47.321-87.931,45.456-87.931,43.494z"/><path fill-rule="evenodd" clip-rule="evenodd" d="M59.837,62.396c0.015,5.605-4.535,10.209-10.11,10.23  c-5.559,0.022-10.22-4.563-10.279-10.111c-0.063-5.559,4.539-10.256,10.079-10.292C55.245,52.186,59.822,56.701,59.837,62.396z"/><path fill-rule="evenodd" clip-rule="evenodd" d="M-137.672,65.53c-3.275,0.015-5.919-2.583-5.942-5.84  c-0.024-3.323,2.575-5.974,5.877-5.994c3.295-0.021,5.952,2.625,5.954,5.93C-131.781,62.877-134.413,65.516-137.672,65.53z"/></svg>