<?xml version="1.0" encoding="UTF-8" standalone="no"?>
<svg width="100px" height="100px" viewBox="0 0 100 100" version="1.1" xmlns="http://www.w3.org/2000/svg" xmlns:xlink="http://www.w3.org/1999/xlink">
    <!-- Generator: Sketch 3.7.1 (28215) - http://www.bohemiancoding.com/sketch -->
    <title>Artboard 1</title>
    <desc>Created with Sketch.</desc>
    <defs></defs>
    <g id="Page-1" stroke="none" stroke-width="1" fill="none" fill-rule="evenodd">
        <g id="Artboard-1" fill="#4A4A4A">
            <g id="bentoBox" transform="translate(5.000000, 6.000000)">
                <path d="M88.764,32.408 L88.692,32.376 L46.646,14.359 C46.613,14.346 46.58,14.342 46.548,14.333 C46.337,14.259 46.122,14.224 45.905,14.236 C45.869,14.239 45.837,14.242 45.802,14.246 C45.688,14.261 45.57,14.241 45.459,14.28 L32.463,18.857 L19.478,0.365 L15.552,3.448 L28.115,20.389 L25.109,21.449 L9.337,1.835 L5.613,5.174 L20.724,22.993 L2.021,29.581 L1.336,29.823 C0.688,30.052 0.25,30.67 0.25,31.357 L0.25,65.957 C0.25,66.201 0.316,66.433 0.419,66.648 C0.592,66.924 0.842,67.153 1.155,67.285 L1.84,67.578 L42.995,85.22 C43.035,85.253 43.054,85.303 43.096,85.334 C43.379,85.536 43.708,85.635 44.038,85.635 C44.219,85.635 44.404,85.607 44.579,85.545 L88.473,70.084 L88.705,70.001 C88.851,69.948 88.984,69.87 89.107,69.782 C89.146,69.754 89.179,69.723 89.211,69.692 C89.273,69.639 89.326,69.581 89.379,69.518 C89.613,69.234 89.75,68.878 89.75,68.505 L89.75,33.905 C89.75,33.256 89.359,32.669 88.764,32.408 L88.764,32.408 Z M6.535,31.448 L22.981,25.655 L40.09,45.832 L6.535,31.448 L6.535,31.448 Z M44.374,45.4 L27.276,24.141 L30.148,23.13 L44.374,42.314 L44.374,45.4 L44.374,45.4 Z M44.374,35.811 L34.412,21.628 L44.374,18.118 L44.374,35.811 L44.374,35.811 Z M47.631,18.332 L83.602,33.745 L50.988,45.233 L47.631,40.45 L47.631,18.332 L47.631,18.332 Z M86.531,67.308 L83.601,68.34 L45.668,81.703 L45.668,52.41 L45.668,52.261 L45.668,52.082 L45.668,50.564 L47.631,49.873 L47.895,49.779 L48.262,49.65 L49.492,49.215 L52.935,48.003 L86.49,36.183 L86.531,36.168 L86.531,67.308 L86.531,67.308 Z" id="Shape"></path>
            </g>
        </g>
    </g>
</svg>