<?xml version="1.0" encoding="UTF-8" standalone="no"?>
<svg
   xmlns:dc="http://purl.org/dc/elements/1.1/"
   xmlns:cc="http://creativecommons.org/ns#"
   xmlns:rdf="http://www.w3.org/1999/02/22-rdf-syntax-ns#"
   xmlns:svg="http://www.w3.org/2000/svg"
   xmlns="http://www.w3.org/2000/svg"
   xmlns:sodipodi="http://sodipodi.sourceforge.net/DTD/sodipodi-0.dtd"
   xmlns:inkscape="http://www.inkscape.org/namespaces/inkscape"
   enable-background="new 0 0 800 800"
   height="800px"
   id="Layer_1"
   version="1.1"
   viewBox="0 0 800 800"
   width="800px"
   xml:space="preserve"
   inkscape:version="0.48.4 r9939"
   sodipodi:docname="1465532746_coconut.svg"><metadata
     id="metadata15"><rdf:RDF><cc:Work
         rdf:about=""><dc:format>image/svg+xml</dc:format><dc:type
           rdf:resource="http://purl.org/dc/dcmitype/StillImage" /></cc:Work></rdf:RDF></metadata><defs
     id="defs13" /><sodipodi:namedview
     pagecolor="#ffffff"
     bordercolor="#666666"
     borderopacity="1"
     objecttolerance="10"
     gridtolerance="10"
     guidetolerance="10"
     inkscape:pageopacity="0"
     inkscape:pageshadow="2"
     inkscape:window-width="945"
     inkscape:window-height="702"
     id="namedview11"
     showgrid="false"
     inkscape:zoom="0.295"
     inkscape:cx="400"
     inkscape:cy="400"
     inkscape:window-x="392"
     inkscape:window-y="207"
     inkscape:window-maximized="0"
     inkscape:current-layer="Layer_1" /><g
     id="g3"
     style="fill:#000000"><path
       d="M746.718,60.83c-0.985-8.498-8.679-14.645-17.186-13.573L536.871,69.933   c-6.588,0.77-11.947,5.654-13.331,12.129l-53.563,249.709H283.142l-49.604-105.753l121.307-57.368   c3.942-1.85,6.916-5.291,8.177-9.458c1.28-4.167,0.744-8.68-1.47-12.414c-19.624-33.231-50.469-58.699-86.812-71.701   c-18.052-6.467-36.846-9.734-55.847-9.734c-19.538,0-38.47,3.57-56.209,9.994c-0.086-0.259-0.138-0.527-0.259-0.778l-7.279-15.769   c-3.579-7.771-12.777-11.16-20.558-7.572c-7.763,3.579-11.152,12.786-7.573,20.558l7.28,15.768c0.138,0.312,0.38,0.536,0.537,0.83   c-32.679,19.278-58.647,49.604-71.987,86.899c-13.01,36.36-12.889,76.352,0.347,112.591c1.495,4.08,4.642,7.365,8.67,9.008   c1.884,0.778,3.881,1.158,5.879,1.158c2.264,0,4.529-0.484,6.621-1.487l121.167-57.281l43.38,92.509h-88.662   c-7.02,0-13.157,4.72-14.973,11.498c-8.126,30.43-12.259,62.122-12.259,94.161c0,173.936,121.289,315.436,270.38,315.436   c149.089,0,270.378-141.5,270.378-315.436c0-32.091-4.114-63.765-12.259-94.178c-1.798-6.777-7.936-11.48-14.955-11.48H501.67   l49.829-232.367l181.646-21.379C741.652,77.03,747.722,69.328,746.718,60.83z M92.012,185.714   c19.132-53.478,70.12-89.389,126.882-89.389c15.439,0,30.707,2.663,45.403,7.919c24.155,8.645,45.316,24.05,60.947,44.141   L87.456,260.804C81.855,235.993,83.367,209.868,92.012,185.714z M642.789,437.429c0,156.854-107.388,284.453-239.395,284.453   c-131.991,0-239.396-127.6-239.396-284.453c0-25.33,2.818-50.4,8.369-74.675h462.07   C639.988,387.011,642.789,412.063,642.789,437.429z"
       fill="#4D4D4D"
       id="path5"
       style="fill:#000000" /><path
       d="M314.005,634.325c0,18.016,14.662,32.678,32.678,32.678c18.016,0,32.661-14.662,32.661-32.678   c0-17.998-14.646-32.66-32.661-32.66C328.667,601.665,314.005,616.327,314.005,634.325z"
       fill="#4D4D4D"
       id="path7"
       style="fill:#000000" /><path
       d="M274.896,595.216c29.513,0,53.53-24.016,53.53-53.513c0-29.53-24.017-53.528-53.53-53.528   c-29.514,0-53.529,23.998-53.529,53.528C221.366,571.2,245.381,595.216,274.896,595.216z M274.896,519.157   c12.431,0,22.546,10.115,22.546,22.546c0,12.415-10.115,22.529-22.546,22.529c-12.432,0-22.546-10.114-22.546-22.529   C252.349,529.272,262.464,519.157,274.896,519.157z"
       fill="#4D4D4D"
       id="path9"
       style="fill:#000000" /></g></svg>