<?xml version="1.0" encoding="UTF-8" standalone="no"?>
<svg width="157px" height="158px" viewBox="0 0 157 158" version="1.1" xmlns="http://www.w3.org/2000/svg" xmlns:xlink="http://www.w3.org/1999/xlink">
    <!-- Generator: Sketch 3.7.1 (28215) - http://www.bohemiancoding.com/sketch -->
    <title>Shape</title>
    <desc>Created with Sketch.</desc>
    <defs></defs>
    <g id="vender+profile" stroke="none" stroke-width="1" fill="none" fill-rule="evenodd">
        <g id="vender-profile" transform="translate(-295.000000, -492.000000)" fill="#4A4A4A">
            <path d="M373.438,492.563 C330.188,492.563 295,527.749 295,570.998 C295,614.25 330.188,649.437 373.438,649.437 C416.688,649.437 451.874,614.249 451.874,570.998 C451.874,527.749 416.688,492.563 373.438,492.563 L373.438,492.563 Z M373.131,525.78 C386.813,525.78 397.902,536.872 397.902,550.551 C397.902,564.232 386.81,575.322 373.131,575.322 C359.448,575.322 348.36,564.23 348.36,550.551 C348.359,536.872 359.448,525.78 373.131,525.78 L373.131,525.78 Z M417.312,626.041 C405.27,635.668 390.02,641.437 373.438,641.437 C356.876,641.437 341.641,635.687 329.604,626.083 C330.72,606.232 343.791,586.18 359.782,586.18 L387.114,586.18 C403.138,586.18 416.242,605.504 417.311,625.386 C417.312,625.388 417.312,625.39 417.312,625.392 C417.312,625.394 417.312,625.753 417.312,626.041 L417.312,626.041 Z" id="Shape"></path>
        </g>
    </g>
</svg>