<?xml version="1.0" encoding="utf-8"?>
<!-- Generator: Adobe Illustrator 16.0.0, SVG Export Plug-In . SVG Version: 6.00 Build 0)  -->
<!DOCTYPE svg PUBLIC "-//W3C//DTD SVG 1.1//EN" "http://www.w3.org/Graphics/SVG/1.1/DTD/svg11.dtd">
<svg version="1.1" id="Layer_1" xmlns="http://www.w3.org/2000/svg" xmlns:xlink="http://www.w3.org/1999/xlink" x="0px" y="0px"
	 width="600px" height="600px" viewBox="6 96 600 600" enable-background="new 6 96 600 600" xml:space="preserve">
<g transform="matrix( 1, 0, 0, 1, 0,0) ">
	<g>
		<g id="a">
			<path fill="#1F1F1F" d="M442.82,332.64c-0.001-58.713-20.095-108.874-60.282-150.48c-39.769-41.171-88.015-61.763-144.738-61.776
				c-56.708,0.021-105.159,20.613-145.35,61.776c-39.759,41.61-59.649,91.77-59.67,150.48
				c0.013,58.726,19.903,108.675,59.67,149.846c40.188,41.605,88.638,62.41,145.35,62.41c56.728,0.008,104.974-20.795,144.738-62.41
				C422.733,441.317,442.827,391.369,442.82,332.64 M352.244,213.523c31.824,32.946,47.736,72.652,47.736,119.117
				c-0.009,46.448-15.921,85.943-47.736,118.483c-31.432,32.938-69.579,49.411-114.444,49.421
				c-44.88,0-83.232-16.475-115.056-49.421C91.314,418.585,75.606,379.09,75.62,332.64c-0.021-46.468,15.687-86.174,47.124-119.117
				c31.82-32.547,70.172-48.81,115.056-48.787C282.667,164.722,320.815,180.984,352.244,213.523 M565.22,649.44
				c0-6.125-2.142-11.406-6.426-15.84l-122.4-126.721c-4.08-4.225-9.078-6.338-14.993-6.336c-5.916,0-11.016,2.111-15.301,6.336
				c-4.08,4.436-6.119,9.717-6.119,15.84c-0.001,6.123,2.039,11.299,6.119,15.523l122.4,126.721c4.284,4.434,9.384,6.652,15.3,6.652
				c5.915,0,10.913-2.219,14.994-6.652C563.078,660.737,565.22,655.563,565.22,649.44z"/>
		</g>
	</g>
</g>
</svg>
